<svg id="CHAT" xmlns="http://www.w3.org/2000/svg" xmlns:xlink="http://www.w3.org/1999/xlink" viewBox="0 0 120 120">
  <defs>
    <style>
      .cls-1 {
        fill: url(#linear-gradient);
      }

      .cls-2 {
        fill: #fff;
      }
    </style>
    <linearGradient id="linear-gradient" y1="0.5" x2="1" y2="0.5" gradientUnits="objectBoundingBox">
      <stop offset="0" stop-color="#2d8fff"/>
      <stop offset="1" stop-color="#9bcaff"/>
    </linearGradient>
  </defs>
  <rect id="Rectangle_Copy" data-name="Rectangle Copy" class="cls-1" width="120" height="120" rx="60"/>
  <g id="speech-bubble-1" transform="translate(34 36)">
    <path id="Fill_1" data-name="Fill 1" class="cls-2" d="M44.228,6.65A27.606,27.606,0,0,0,25.96,0,27.607,27.607,0,0,0,7.692,6.65,21.617,21.617,0,0,0,0,22.992a21.374,21.374,0,0,0,5.022,13.6A7.6,7.6,0,0,1,2.4,39.546a2.571,2.571,0,0,0,1.043,4.7,16.255,16.255,0,0,0,10.437-1.915,1.916,1.916,0,1,0-1.968-3.287,11.318,11.318,0,0,1-4.937,1.511,12.253,12.253,0,0,0,2.074-3.649,1.929,1.929,0,0,0-.383-1.968A17.409,17.409,0,0,1,3.83,22.992C3.83,12.427,13.757,3.83,25.96,3.83s22.13,8.6,22.13,19.161S38.164,42.153,25.96,42.153a25.24,25.24,0,0,1-5.234-.543,1.913,1.913,0,0,0-.787,3.745,29.232,29.232,0,0,0,6.032.628,27.628,27.628,0,0,0,18.268-6.65A21.643,21.643,0,0,0,51.92,22.992,21.617,21.617,0,0,0,44.228,6.65Z"/>
    <path id="Fill_2" data-name="Fill 2" class="cls-2" d="M5.022,2.511A2.511,2.511,0,1,1,2.511,0,2.511,2.511,0,0,1,5.022,2.511Z" transform="translate(23.438 20.513)"/>
    <path id="Fill_3" data-name="Fill 3" class="cls-2" d="M5.022,2.511A2.511,2.511,0,1,1,2.511,0,2.511,2.511,0,0,1,5.022,2.511Z" transform="translate(31.269 20.513)"/>
    <path id="Fill_4" data-name="Fill 4" class="cls-2" d="M5.022,2.511A2.511,2.511,0,1,1,2.511,0,2.511,2.511,0,0,1,5.022,2.511Z" transform="translate(15.608 20.513)"/>
  </g>
</svg>
