<svg xmlns="http://www.w3.org/2000/svg" xmlns:xlink="http://www.w3.org/1999/xlink" viewBox="0 0 140.415 175.658">
  <defs>
    <style>
      .cls-1 {
        fill: none;
      }

      .cls-2 {
        clip-path: url(#clip-path);
      }

      .cls-3 {
        fill: url(#linear-gradient);
      }
    </style>
    <clipPath id="clip-path">
      <path id="Clip_2" data-name="Clip 2" class="cls-1" d="M0,0V175.658H140.415V0H0Z" transform="translate(0.22 0.335)"/>
    </clipPath>
    <linearGradient id="linear-gradient" y1="0.5" x2="1" y2="0.5" gradientUnits="objectBoundingBox">
      <stop offset="0" stop-color="#2d8fff"/>
      <stop offset="1" stop-color="#9bcaff"/>
    </linearGradient>
  </defs>
  <g id="heart" transform="translate(-0.22 -0.334)">
    <g id="Group_3" data-name="Group 3">
      <path id="Clip_2-2" data-name="Clip 2" class="cls-1" d="M0,0V175.658H140.415V0H0Z" transform="translate(0.22 0.335)"/>
      <g id="Group_3-2" data-name="Group 3" class="cls-2">
        <path id="Fill_1" data-name="Fill 1" class="cls-3" d="M103.077,175.658A131.527,131.527,0,0,1,80.21,173.75,102.328,102.328,0,0,1,59.882,168a91.3,91.3,0,0,1-17.9-9.634,96.294,96.294,0,0,1-15.577-13.559,80.191,80.191,0,0,1-10.725-14.317,66.047,66.047,0,0,1-6.531-15.4A64.791,64.791,0,0,1,6.809,98.654,76.154,76.154,0,0,1,8.654,81.227l-.172.044.747-2.666c.044-.18.1-.362.146-.539l0-.017,0-.016.014-.047.008-.03c.054-.183.115-.394.163-.594l.26-.917c.03-.105.061-.21.094-.317l.035-.115c.4-1.392.765-2.645,1.172-3.88.5-1.542,1.015-3.026,1.589-4.539,3.051-8.047,3.274-17.523,3.49-26.686v-.015a9.266,9.266,0,0,1,.044-.931L2.1,25.812a7.2,7.2,0,0,1,0-10.167l2.274-2.277a7.17,7.17,0,0,1,5.075-2.043,7.2,7.2,0,0,1,5.084,2.043l13.891,13.9.3,0c.467,0,.992.019,1.65.061.223.016.474.024.747.024.136,0,.3,0,.554-.01a.8.8,0,0,0,.109-.01h.01l.013,0,.014,0,.014,0,.012,0,.013,0a.864.864,0,0,1,.1-.008l.168-.014.034,0c.326-.027.578-.049.842-.083a1.649,1.649,0,0,0,.221-.037l.01,0,.007,0,.014,0,.012,0a1.621,1.621,0,0,1,.164-.028l.194-.033.028,0c.24-.041.467-.079.708-.134.125-.03.269-.066.512-.129.329-.087.575-.155.773-.212.173-.051.324-.109.471-.166l.015-.006.005,0,.006,0,.063-.024.067-.023.067-.023.013,0c.166-.057.328-.113.482-.177a5.65,5.65,0,0,0,.527-.246,5.321,5.321,0,0,0,.5-.242,2.975,2.975,0,0,0,.3-.184c.047-.032.092-.061.138-.09s.091-.065.142-.1l.007,0,.018-.012a1.462,1.462,0,0,0,.218-.157,1.426,1.426,0,0,0,.246-.238l.043-.048.028-.027.027-.027.008-.008a1.746,1.746,0,0,0,.194-.21.31.31,0,0,1-.007-.1c0-.054,0-.129-.007-.229l-.015-.661c-.2-1.015-.67-2.531-.983-3.534l-.006-.021-.025-.082a30.355,30.355,0,0,1-1.333-5.112c-.64-4.666-.59-8.1,1.732-9.683a14.683,14.683,0,0,1,7.638-2.367,7.672,7.672,0,0,1,3.491.75A16.837,16.837,0,0,1,55.22,8.784a1.34,1.34,0,0,0,1.035.545.94.94,0,0,0,.511-.144,23.654,23.654,0,0,1,5.8-2.652,20.981,20.981,0,0,1,6.015-.889,20.749,20.749,0,0,1,5.854.85L77.6,3.325A11.073,11.073,0,0,1,81.43.831a12.326,12.326,0,0,1,8.9,0,11.08,11.08,0,0,1,3.834,2.493,11.765,11.765,0,0,1,0,16.6l-2.688,2.691A42.9,42.9,0,0,1,93.09,26.66a1.471,1.471,0,0,0,1.359,1.015,19.123,19.123,0,0,1,8.1,1.547h17.583a11.737,11.737,0,0,1,0,23.475H103.993a21.324,21.324,0,0,1-7.054,2.221,58.359,58.359,0,0,1,17.825,16.526l7.152-7.659a7.078,7.078,0,0,1,5.007-2.281c.119,0,.218-.007.311-.007a7.079,7.079,0,0,1,4.838,1.928l2.348,2.193a7.222,7.222,0,0,1,.344,10.167l-.714.774,1.029.242a7.2,7.2,0,0,1,5.366,8.638l-.733,3.135a7.184,7.184,0,0,1-3.2,4.47,7.153,7.153,0,0,1-5.42.9l-6.838-1.591c2.616,9.583,3.764,19.905,4.776,29.013.364,3.341.767,6.938,1.245,10.605a167.1,167.1,0,0,1,1.545,25c-.2,10.723-6.662,17.56-17.294,18.29C110.719,175.524,106.868,175.658,103.077,175.658ZM46.284,8.685A9.069,9.069,0,0,0,42.4,9.727a19.422,19.422,0,0,0,.271,4.326,28.949,28.949,0,0,0,1.1,4.14l0,.015a34.521,34.521,0,0,1,1.161,4.381c4.974,3.526,8.412,7.493,10.22,11.793a18.276,18.276,0,0,1,.35,13.4c-1.914,5.575-7.554,12.331-15.475,18.535-7.879,6.171-17,11.016-25.025,13.292-6.073,23.306-.945,43.325,15.679,61.2,18.18,19.5,41.87,28.981,72.424,28.981,3.569,0,7.278-.132,11.024-.392,7.484-.513,11.687-4.969,11.833-12.547a160.972,160.972,0,0,0-1.49-24.1c-.481-3.617-.9-7.351-1.263-10.645l-.009-.081c-1.165-10.524-2.37-21.405-5.467-31.195h-.011l-.531-1.547a57.516,57.516,0,0,0-6.065-12.749c-.037-.054-.07-.107-.1-.152l-.005-.008c-.047-.074-.091-.144-.142-.209l-.758-1.192A53.606,53.606,0,0,0,92.4,59.044a5.191,5.191,0,0,1-.128-8.94,1.744,1.744,0,0,1-.213-.209,2.417,2.417,0,0,0-.171-.176,13,13,0,0,1-1.03-1.049l-.1-.111a5.5,5.5,0,0,1-.517-.634,12.661,12.661,0,0,1-.816-1.272c-.061-.117-.124-.23-.194-.355l-.018-.032c-.077-.138-.156-.282-.231-.431a10.979,10.979,0,0,1-.557-1.577c-.029-.1-.065-.2-.1-.3l-.01-.027a3.762,3.762,0,0,1-.137-.433,12.457,12.457,0,0,1-.285-2.534,12.826,12.826,0,0,1,.227-2.351,3.675,3.675,0,0,1,.138-.45c.041-.115.078-.218.107-.324.022-.08.043-.16.064-.24l.006-.023a8.992,8.992,0,0,1,.358-1.141,5.769,5.769,0,0,1,.314-.6l.009-.015c.057-.1.107-.185.149-.261s.078-.157.117-.236l0-.006a6.461,6.461,0,0,1,.48-.862,6.337,6.337,0,0,1,.5-.624l.009-.01,0-.005c.055-.063.109-.125.163-.189.076-.1.149-.195.22-.291a5.3,5.3,0,0,1,.465-.57,7.371,7.371,0,0,1-3.677-4.209,34.348,34.348,0,0,0-2.23-5.141L84.308,21.5l5.72-5.727a5.89,5.89,0,0,0,0-8.294,5.849,5.849,0,0,0-8.284,0l-5.809,5.816-1.787-.7a15.238,15.238,0,0,0-5.591-1.085,16.188,16.188,0,0,0-8.671,2.644,6.807,6.807,0,0,1-3.614,1.028A7.21,7.21,0,0,1,50.53,12.3,11.84,11.84,0,0,0,47.068,8.81,1.875,1.875,0,0,0,46.284,8.685Zm80.841,58.678a1.292,1.292,0,0,0-.916.414l-8.182,8.782a66.165,66.165,0,0,1,4.161,9.251.044.044,0,0,0,.014.029l10.215,2.39a1.435,1.435,0,0,0,.3.033,1.323,1.323,0,0,0,1.285-1.02l.729-3.138a1.308,1.308,0,0,0-.163-1.007,1.291,1.291,0,0,0-.823-.581l-10.9-2.548,7.639-8.181a1.324,1.324,0,0,0-.058-1.877l-2.358-2.189a1.376,1.376,0,0,0-.919-.357ZM9.455,17.119a1.34,1.34,0,0,0-.931.385L6.251,19.785a1.262,1.262,0,0,0-.3.483,1.223,1.223,0,0,0-.1.459,1.236,1.236,0,0,0,.1.444,1.306,1.306,0,0,0,.3.488L22.318,37.744l-.129,1.374,0,.05,0,.027c-.054.567-.11,1.154-.124,1.826-.212,9.22-.453,19.671-3.86,28.647-.31.815-.595,1.646-.846,2.379l-.006.019,0,.012q-.121.358-.246.715A73.908,73.908,0,0,0,38.028,60.381c6.186-5.158,10.534-10.449,11.93-14.515,2.1-6.1-.108-11.851-6.552-17.1a1.726,1.726,0,0,1-.166.159l-.008.007c-.034.03-.067.059-.1.09-.2.191-.4.377-.616.543a10.458,10.458,0,0,1-.828.645l-.071.046-.023.015-.04.026c-.2.126-.4.256-.609.372a9.489,9.489,0,0,1-.93.5c-.292.147-.566.274-.861.4-.319.133-.618.247-.941.359-.282.1-.633.228-.974.33a8.7,8.7,0,0,1-.886.242l-.38.1-.02.005-.055.014c-.2.05-.4.1-.6.144-.173.035-.341.059-.5.083l-.03,0-.269.041c-.342.064-.681.119-1.117.187-.106.011-.212.018-.313.024h-.035c-.117.006-.242.013-.366.029-.349.029-.71.058-1.058.074-.231.006-.455.009-.684.009-.333,0-.634-.008-.92-.024-.474-.038-.948-.057-1.409-.057-.391,0-.778.014-1.152.042l-1.314.085L10.386,17.5A1.34,1.34,0,0,0,9.455,17.119ZM120.129,35.093a5.867,5.867,0,1,0,5.849,5.874A5.877,5.877,0,0,0,120.129,35.093Zm-20.516,0a5.867,5.867,0,0,0,0,11.733h10.416a11.46,11.46,0,0,1,0-11.733Z" transform="translate(0.001 0.335)"/>
      </g>
    </g>
    <path id="Fill_4" data-name="Fill 4" class="cls-3" d="M58.718,71.069l-7.2,4.91a107.458,107.458,0,0,1-13.173-8.343H48.813a2.943,2.943,0,0,0,0-5.884H31.571a1.007,1.007,0,0,0-.18.04C23.929,54.673,19.1,46.848,16.984,38.376a41.358,41.358,0,0,1-1.11-12.39c.029-.029.072-.029.115-.044,5.049-3.617,10.928-3.6,17.522.015a38.5,38.5,0,0,1,7.014,5.054,2.926,2.926,0,0,0-.323,1.338V44.106a2.869,2.869,0,1,0,5.735,0V36.582a68.461,68.461,0,0,1,4.812,6.259,2.882,2.882,0,0,0,2.37,1.264,2.812,2.812,0,0,0,1.641-.533,2.983,2.983,0,0,0,.7-4.091,74.118,74.118,0,0,0-6.357-8.1l7.168-5.513a2.967,2.967,0,0,0,.578-4.106,2.814,2.814,0,0,0-4.015-.592l-7.868,6.031a46.241,46.241,0,0,0-8.756-6.447C29.356,17,22.762,16.4,16.872,18.837A47.1,47.1,0,0,1,22.453,4.595,2.962,2.962,0,0,0,21.7.515a2.823,2.823,0,0,0-3.983.761c-.463.691-10.971,16.786-6.594,37.071a2.762,2.762,0,0,0-1.25.632C-2.84,50.652-3.3,71.514,8.638,85.97l-.043,8.1a2.9,2.9,0,0,0,2.848,2.959h.029a2.9,2.9,0,0,0,2.862-2.915l.04-5.9h5.71a2.945,2.945,0,0,0,0-5.888h-6.9C3.419,70.65,3.29,54.041,12.8,44.294,15.763,52.6,21.081,60.271,28.7,67.221v15.1a2.876,2.876,0,1,0,5.75,0V72a111.621,111.621,0,0,0,14.365,9.174v7.035a2.877,2.877,0,1,0,5.753,0V80.96L61.9,75.95a2.99,2.99,0,0,0,.8-4.08A2.84,2.84,0,0,0,58.718,71.069Z" transform="translate(49.641 59.795)"/>
  </g>
</svg>
