<svg xmlns="http://www.w3.org/2000/svg" viewBox="0 0 550 524">
  <defs>
    <style>
      .cls-1, .cls-2 {
        fill: #fff;
      }

      .cls-2 {
        font-size: 66px;
        font-family: SegoeUI, Segoe UI;
        letter-spacing: 0.041em;
      }
    </style>
  </defs>
  <g id="Group_2" data-name="Group 2" transform="translate(-100 -327)">
    <path id="ICON_OK" class="cls-1" d="M185,370a186.371,186.371,0,0,1-37.284-3.759A183.987,183.987,0,0,1,81.565,338.4a185.54,185.54,0,0,1-67.027-81.394,184.071,184.071,0,0,1-10.78-34.726,186.806,186.806,0,0,1,0-74.568A183.987,183.987,0,0,1,31.6,81.565,185.54,185.54,0,0,1,112.99,14.538a184.072,184.072,0,0,1,34.727-10.78,186.806,186.806,0,0,1,74.568,0A183.985,183.985,0,0,1,288.435,31.6a185.54,185.54,0,0,1,67.026,81.395,184.072,184.072,0,0,1,10.78,34.727,186.806,186.806,0,0,1,0,74.568A183.985,183.985,0,0,1,338.4,288.435a185.54,185.54,0,0,1-81.394,67.026,184.071,184.071,0,0,1-34.726,10.78A186.368,186.368,0,0,1,185,370ZM116.5,155.346a11.576,11.576,0,0,0-8.58,3.638L90.766,176.659a12.839,12.839,0,0,0,0,17.684l62.825,64.729a11.929,11.929,0,0,0,17.153,0L279.234,147.29a12.838,12.838,0,0,0,0-17.683L262.073,111.93a11.93,11.93,0,0,0-17.154,0l-82.754,85.4-37.082-38.351A11.586,11.586,0,0,0,116.5,155.346Z" transform="translate(190 327)"/>
    <text id="Finish_Sign_Up_" data-name="Finish Sign Up!" class="cls-2" transform="translate(100 763)"><tspan x="39.36" y="71">Finish Sign Up!</tspan></text>
  </g>
</svg>
