<svg xmlns="http://www.w3.org/2000/svg" xmlns:xlink="http://www.w3.org/1999/xlink" viewBox="0 0 82.411 108.993">
  <defs>
    <style>
      .cls-1 {
        fill: url(#linear-gradient);
      }
    </style>
    <linearGradient id="linear-gradient" y1="0.5" x2="1" y2="0.5" gradientUnits="objectBoundingBox">
      <stop offset="0" stop-color="#2d8fff"/>
      <stop offset="1" stop-color="#9bcaff"/>
    </linearGradient>
  </defs>
  <g id="medicine-book" transform="translate(0 -0.106)">
    <path id="Fill_2" data-name="Fill 2" class="cls-1" d="M25.707,51.413A11.128,11.128,0,0,1,14.591,40.3V36.822H11.117a11.116,11.116,0,1,1,0-22.233h3.474V11.116a11.116,11.116,0,0,1,22.232,0v3.475H40.3a11.116,11.116,0,1,1,0,22.232H36.823V40.3A11.128,11.128,0,0,1,25.707,51.413ZM11.117,20.477a5.23,5.23,0,0,0,0,10.46h6.418a2.946,2.946,0,0,1,2.942,2.943V40.3a5.229,5.229,0,0,0,10.459,0V33.88a2.946,2.946,0,0,1,2.943-2.943H40.3a5.23,5.23,0,0,0,0-10.46H33.879a2.946,2.946,0,0,1-2.943-2.942V11.117a5.229,5.229,0,1,0-10.459,0v6.418a2.945,2.945,0,0,1-2.942,2.942Z" transform="translate(15.499 17.1)"/>
    <path id="Fill_3" data-name="Fill 3" class="cls-1" d="M0,0H16.965V10.845a.973.973,0,0,1-1.351.754L8.857,9.254a1.159,1.159,0,0,0-.75,0L1.351,11.6A.972.972,0,0,1,0,10.845Z" transform="translate(50.383 94.493)"/>
    <path id="Fill_4" data-name="Fill 4" class="cls-1" d="M18.932,17.549a4.1,4.1,0,0,1-1.34-.227l-6.167-2.14L5.26,17.322a4.094,4.094,0,0,1-1.341.227A3.846,3.846,0,0,1,0,13.789V2.943A2.947,2.947,0,0,1,2.944,0H19.908a2.946,2.946,0,0,1,2.943,2.943V13.789A3.847,3.847,0,0,1,18.932,17.549ZM11.425,9.192a4.037,4.037,0,0,1,1.337.225l4.2,1.457V5.886H5.886v4.988l4.2-1.457A4.068,4.068,0,0,1,11.425,9.192Z" transform="translate(47.44 91.55)"/>
    <path id="Fill_6" data-name="Fill 6" class="cls-1" d="M72.993,97.128H13.244A13.259,13.259,0,0,1,0,83.883V13.244A13.259,13.259,0,0,1,13.244,0H72.993a9.429,9.429,0,0,1,9.418,9.418V63.033a2.943,2.943,0,0,1-5.886,0V9.418a3.536,3.536,0,0,0-3.532-3.532H13.244a7.367,7.367,0,0,0-7.358,7.358V83.883a7.367,7.367,0,0,0,7.358,7.358H72.993a3.536,3.536,0,0,0,3.532-3.532V78.044a2.943,2.943,0,0,1,5.886,0v9.666a9.429,9.429,0,0,1-9.418,9.418Z" transform="translate(0 0.106)"/>
    <path id="Fill_8" data-name="Fill 8" class="cls-1" d="M33.727,5.886H2.943A2.943,2.943,0,0,1,2.943,0H33.727a2.943,2.943,0,1,1,0,5.886Z" transform="translate(22.871 72.837)"/>
  </g>
</svg>
