<svg xmlns="http://www.w3.org/2000/svg" viewBox="0 0 753 201">
  <defs>
    <style>
      .cls-1 {
        fill: #2d8fff;
      }

      .cls-2 {
        fill: none;
      }

      .cls-3, .cls-4, .cls-5, .cls-6 {
        fill: #fff;
      }

      .cls-3 {
        opacity: 0.2;
      }

      .cls-4 {
        opacity: 0.4;
      }

      .cls-5 {
        opacity: 0.6;
      }
    </style>
  </defs>
  <g id="Group_1" data-name="Group 1" transform="translate(0 2)">
    <g id="NAV_BAR" transform="translate(0 -2)">
      <rect id="Rectangle_6" data-name="Rectangle 6" class="cls-1" width="100%" height="200"/>
      <g id="back" transform="translate(43 42)">
        <path id="Clip_2" data-name="Clip 2" class="cls-2" d="M0,0V85H47V0Z"/>
      </g>
      <g id="loading" transform="translate(0 127)">
        <path id="Fill_1" data-name="Fill 1" class="cls-3" d="M0,.223S36.536,22.436,92.733,21.935C130.181,21.6,164.4-2.559,214.312.223c33.706,1.879,70.761,28.3,108.4,27.916,38.443-.388,78.7-26.882,137.247-27.916s108.99,33.294,155.793,34.119C696.16,35.759,751.669,6.466,753,9.528V74H0Z" transform="translate(0 0)"/>
        <path id="Fill_3" data-name="Fill 3" class="cls-4" d="M0,39.076S26.682,1.653,121.379,2.82c75.422.93,90.7,25.048,134.566,25.1,36.134.042,77.368-26.13,114.99-25.1C408.212,3.84,442,30.5,478.506,30.709c35.564.2,65.545-29.722,122.41-30.677s73.656,20.189,98.446,27.889C737.918,39.892,753,41.864,753,41.864V58H0Z" transform="translate(0 16)"/>
        <path id="Fill_5" data-name="Fill 5" class="cls-5" d="M753,13.222c-37.094,0-42.566,24.492-159.5,23.031-31.714-.4-98.856-35.064-133.536-36.192-40.042-1.3-81.434,26.47-122.41,26.321-41.865-.153-79.585-24.761-118.7-26.321C175.961-1.65,131.618,32.793,96.444,29.672,22.257,23.093,0,3.351,0,3.351V52H753Z" transform="translate(0 22)"/>
        <path id="Fill_7" data-name="Fill 7" class="cls-6" d="M753,30.145c-4.572,2.583-35.317,6.256-96.444-2.74C628,23.2,602.657,3.19,567.531,2.741c-34.977-.448-80.013,22.559-118.7,21.923-55.64-.912-76.77-21.817-114.99-21.923-36.807-.1-65.662,15.431-100.153,16.443C182.1,20.7,137.177.111,96.444,0,27.7-.186,0,27.4,0,27.4V46H753Z" transform="translate(0 28)"/>
      </g>
    </g>
  </g>
</svg>
