<svg xmlns="http://www.w3.org/2000/svg" xmlns:xlink="http://www.w3.org/1999/xlink" viewBox="0 0 194.589 175.383">
  <defs>
    <style>
      .cls-1 {
        fill: none;
      }

      .cls-2 {
        fill: url(#linear-gradient);
      }

      .cls-3 {
        clip-path: url(#clip-path);
      }
    </style>
    <linearGradient id="linear-gradient" y1="0.5" x2="1" y2="0.5" gradientUnits="objectBoundingBox">
      <stop offset="0" stop-color="#2d8fff"/>
      <stop offset="1" stop-color="#9bcaff"/>
    </linearGradient>
    <clipPath id="clip-path">
      <path id="Clip_3" data-name="Clip 3" class="cls-1" d="M97.294,0H0V175.383H194.589V0Z" transform="translate(0.038 0.617)"/>
    </clipPath>
  </defs>
  <g id="smiling-baby" transform="translate(-0.038 -0.617)">
    <path id="Fill_1" data-name="Fill 1" class="cls-2" d="M15.795,7.9A7.9,7.9,0,1,1,7.9,0,7.9,7.9,0,0,1,15.795,7.9Z" transform="translate(48.513 100.41)"/>
    <g id="Group_5" data-name="Group 5">
      <path id="Clip_3-2" data-name="Clip 3" class="cls-1" d="M97.294,0H0V175.383H194.589V0Z" transform="translate(0.038 0.617)"/>
      <g id="Group_5-2" data-name="Group 5" class="cls-3">
        <path id="Fill_2" data-name="Fill 2" class="cls-2" d="M15.454,7.73A7.727,7.727,0,1,1,7.727,0,7.727,7.727,0,0,1,15.454,7.73Z" transform="translate(130.171 100.517)"/>
        <path id="Fill_4" data-name="Fill 4" class="cls-2" d="M97.312,175.383c-24.182,0-42.062-3.439-54.662-10.513A48.524,48.524,0,0,1,33.2,158a42.81,42.81,0,0,1-7.095-8.647,45.637,45.637,0,0,1-4.722-10.4,57.475,57.475,0,0,1-2.336-12.126,22.789,22.789,0,0,1-.275-44.906V78.545a78.544,78.544,0,1,1,157.089,0v3.379a22.873,22.873,0,0,1,17.335,14.468,22.811,22.811,0,0,1-17.609,30.437,57.383,57.383,0,0,1-2.337,12.126,45.61,45.61,0,0,1-4.722,10.4A42.742,42.742,0,0,1,161.429,158a48.469,48.469,0,0,1-9.453,6.866C139.376,171.944,121.495,175.383,97.312,175.383ZM77.059,11.014A70.989,70.989,0,0,0,26.815,78.545V120.5c0,17.669,6.468,29.889,19.773,37.358,11.366,6.381,27.958,9.483,50.725,9.483s39.361-3.1,50.726-9.483c13.305-7.469,19.773-19.689,19.773-37.358V78.545A70.768,70.768,0,0,0,98.28,8.059a40.884,40.884,0,0,1,9.5,6.732C114.805,21.489,119,30.472,119,38.822a24.131,24.131,0,0,1-24.1,24.1A20.11,20.11,0,0,1,74.81,42.838,16.894,16.894,0,0,1,91.683,25.962a4.023,4.023,0,1,1,0,8.047,8.839,8.839,0,0,0-8.83,8.829A12.056,12.056,0,0,0,94.9,54.879a16.076,16.076,0,0,0,16.059-16.058c0-6.161-3.235-12.94-8.654-18.133-4.512-4.324-12.553-9.513-25.242-9.674Zm98.8,79.154v28.366a14.741,14.741,0,0,0,0-28.366Zm-157.089,0a14.74,14.74,0,0,0,0,28.363V90.168Z" transform="translate(0 0.617)"/>
      </g>
    </g>
    <path id="Fill_6" data-name="Fill 6" class="cls-2" d="M38.218,1.187a22.118,22.118,0,0,1-31.308,0,4.053,4.053,0,0,0-5.724,5.74,30.1,30.1,0,0,0,21.379,8.867,30.1,30.1,0,0,0,21.38-8.867,4.054,4.054,0,0,0-5.727-5.74Z" transform="translate(74.462 118.462)"/>
  </g>
</svg>
