<svg id="stomach" xmlns="http://www.w3.org/2000/svg" xmlns:xlink="http://www.w3.org/1999/xlink" viewBox="0 0 138.948 176">
  <defs>
    <style>
      .cls-1 {
        fill: url(#linear-gradient);
      }
    </style>
    <linearGradient id="linear-gradient" y1="0.5" x2="1" y2="0.5" gradientUnits="objectBoundingBox">
      <stop offset="0" stop-color="#2d8fff"/>
      <stop offset="1" stop-color="#9bcaff"/>
    </linearGradient>
  </defs>
  <path id="Fill_1" data-name="Fill 1" class="cls-1" d="M11.318,176c-.125,0-.257,0-.415-.009A11.354,11.354,0,0,1,0,164.519V139.786A27.7,27.7,0,0,1,27.693,112.14h3.292a2.16,2.16,0,0,0,2.048-1.434A32.664,32.664,0,0,1,56.155,89.721a22.626,22.626,0,0,0,16.88-25.86H67.867A27.7,27.7,0,0,1,40.173,36.215V11.3A11.305,11.305,0,0,1,51.483,0c.136,0,.275,0,.411.007A11.359,11.359,0,0,1,62.8,11.481V36.215a5.069,5.069,0,0,0,5.068,5.059h6.765a32.758,32.758,0,0,1,46.888-14.645,32.5,32.5,0,0,1,14.846,20.177A87.958,87.958,0,0,1,71.781,153.25a32.745,32.745,0,0,1-37.207-17.31,2.165,2.165,0,0,0-1.955-1.214H27.693a5.07,5.07,0,0,0-5.068,5.06v24.919A11.3,11.3,0,0,1,11.318,176Zm16.376-56.849a20.676,20.676,0,0,0-20.67,20.634v24.733a4.419,4.419,0,0,0,4.129,4.465l.161,0a4.282,4.282,0,0,0,4.286-4.281V139.786a12.1,12.1,0,0,1,12.094-12.072H32.62a9.143,9.143,0,0,1,8.258,5.134,25.732,25.732,0,0,0,29.228,13.594,80.949,80.949,0,0,0,59.44-97.965A25.764,25.764,0,0,0,104.595,28.9,25.813,25.813,0,0,0,80.629,45.116a5.023,5.023,0,0,1-4.7,3.171H67.868A12.1,12.1,0,0,1,55.777,36.215V11.481a4.419,4.419,0,0,0-4.13-4.465l-.157,0A4.285,4.285,0,0,0,47.2,11.3v24.92a20.676,20.676,0,0,0,20.67,20.634h6.755A5.053,5.053,0,0,1,79.542,60.7l.013.055A29.429,29.429,0,0,1,76.1,83.119,29.557,29.557,0,0,1,57.829,96.53a25.666,25.666,0,0,0-18.165,16.492,9.2,9.2,0,0,1-8.679,6.129Z"/>
  <path id="Fill_3" data-name="Fill 3" class="cls-1" d="M36.364.512a3.575,3.575,0,0,0-4.893,1.2A68.86,68.86,0,0,1,2.034,28.251a3.541,3.541,0,0,0,1.531,6.744,3.573,3.573,0,0,0,1.526-.344A75.948,75.948,0,0,0,37.567,5.379,3.533,3.533,0,0,0,36.364.512Z" transform="translate(78.222 101.895)"/>
  <path id="Fill_4" data-name="Fill 4" class="cls-1" d="M9.133,2.668A3.22,3.22,0,0,0,5.1.147C4.236.431,3.356.7,2.481.942A3.754,3.754,0,0,0,.094,5.415,3.367,3.367,0,0,0,3.255,8.234a2.907,2.907,0,0,0,.78-.108c.962-.267,1.93-.562,2.878-.875A3.792,3.792,0,0,0,9.133,2.668Z" transform="translate(64.842 133.801)"/>
</svg>
