<svg xmlns="http://www.w3.org/2000/svg" xmlns:xlink="http://www.w3.org/1999/xlink" viewBox="0 0 175.979 176">
  <defs>
    <style>
      .cls-1 {
        fill: none;
      }

      .cls-2 {
        clip-path: url(#clip-path);
      }

      .cls-3 {
        fill: url(#linear-gradient);
      }
    </style>
    <clipPath id="clip-path">
      <path id="Clip_2" data-name="Clip 2" class="cls-1" d="M0,176H175.979V0H0Z" transform="translate(0.021)"/>
    </clipPath>
    <linearGradient id="linear-gradient" y1="0.5" x2="1" y2="0.5" gradientUnits="objectBoundingBox">
      <stop offset="0" stop-color="#2d8fff"/>
      <stop offset="1" stop-color="#9bcaff"/>
    </linearGradient>
  </defs>
  <g id="brain" transform="translate(-0.021)">
    <path id="Clip_2-2" data-name="Clip 2" class="cls-1" d="M0,176H175.979V0H0Z" transform="translate(0.021)"/>
    <g id="brain-2" data-name="brain" class="cls-2">
      <path id="Fill_1" data-name="Fill 1" class="cls-3" d="M103.812,176a21.624,21.624,0,0,1-16-7.181,20.614,20.614,0,0,1-36.246-13.444,30.985,30.985,0,0,1-30.527-25.911A41.336,41.336,0,0,1,3.271,77.342a40.854,40.854,0,0,1,9.294-13.49A30.947,30.947,0,0,1,41.25,21.313c.188,0,.353,0,.5,0A26.82,26.82,0,0,1,48.72,7.978a25,25,0,0,1,36.623,0,27.492,27.492,0,0,1,2.442,2.938A27.634,27.634,0,0,1,90.4,7.895,26.562,26.562,0,0,1,108.968,0,25.2,25.2,0,0,1,127.1,7.785a26.9,26.9,0,0,1,7.133,13.532c.154,0,.322,0,.515,0a30.947,30.947,0,0,1,28.685,42.538,41.266,41.266,0,0,1,5.983,52.01,41.334,41.334,0,0,1-14.454,13.6,30.932,30.932,0,0,1-30.526,25.91A20.622,20.622,0,0,1,103.812,176Zm-11-98.3v77.671c0,5.493,5.14,10.312,11,10.312A10.317,10.317,0,0,0,113.97,153.56a30.852,30.852,0,0,1-8.082-4.361,5.156,5.156,0,1,1,6.188-8.249,20.442,20.442,0,0,0,12.362,4.114,20.629,20.629,0,0,0,9.73-38.817,5.156,5.156,0,1,1,4.874-9.088,30.964,30.964,0,0,1,15.494,20.114,31.41,31.41,0,0,0,8.178-10.59,31.025,31.025,0,0,0,2.207-6.377,30.873,30.873,0,0,0-11.032-31.114,5.184,5.184,0,0,1-1.27-6.631A20.632,20.632,0,0,0,134.75,31.625a20.835,20.835,0,0,0-4.137.414,5.25,5.25,0,0,1-1.038.105,5.179,5.179,0,0,1-3.685-1.563,5.107,5.107,0,0,1-1.46-3.724,16.537,16.537,0,0,0-4.715-11.876,14.968,14.968,0,0,0-10.747-4.668A16.579,16.579,0,0,0,92.813,26.469V57.407c0,8.385,7.4,15.468,16.156,15.468a5.157,5.157,0,1,1,0,10.313A26.443,26.443,0,0,1,92.813,77.7Zm-25.781,62.2a5.157,5.157,0,0,1,3.1,9.278,30.849,30.849,0,0,1-8.1,4.376,10.315,10.315,0,1,0,20.47,1.815V78.017a25.539,25.539,0,0,1-15.469,5.171,5.157,5.157,0,0,1,0-10.313A15.486,15.486,0,0,0,82.5,57.407V26.469c0-8.758-7.084-16.157-15.469-16.157s-15.468,7.4-15.468,16.157a5.336,5.336,0,0,1-5.248,5.653,5.2,5.2,0,0,1-1.013-.1A20.635,20.635,0,0,0,23.381,62.56a5.183,5.183,0,0,1-1.27,6.631A30.876,30.876,0,0,0,11.078,100.3a31.1,31.1,0,0,0,2.206,6.375,31.426,31.426,0,0,0,8.174,10.589,30.805,30.805,0,0,1,16.26-20.5,5.152,5.152,0,0,1,6.92,2.3,5.163,5.163,0,0,1-2.3,6.92,20.628,20.628,0,1,0,21.6,34.956A5.114,5.114,0,0,1,67.031,139.906Z"/>
    </g>
  </g>
</svg>
