<svg id="CALL" xmlns="http://www.w3.org/2000/svg" xmlns:xlink="http://www.w3.org/1999/xlink" viewBox="0 0 120 120">
  <defs>
    <style>
      .cls-1 {
        fill: url(#linear-gradient);
      }

      .cls-2 {
        fill: #fff;
      }
    </style>
    <linearGradient id="linear-gradient" y1="0.5" x2="1" y2="0.5" gradientUnits="objectBoundingBox">
      <stop offset="0" stop-color="#2d8fff"/>
      <stop offset="1" stop-color="#9bcaff"/>
    </linearGradient>
  </defs>
  <rect id="Rectangle_Copy" data-name="Rectangle Copy" class="cls-1" width="120" height="120" rx="60"/>
  <g id="phone-call" transform="translate(34 34)">
    <path id="Fill_1" data-name="Fill 1" class="cls-2" d="M42.423,31c-.589-.634-1.2-1.236-1.8-1.816-.3-.29-.6-.591-.9-.892l-2.611-2.622a4.984,4.984,0,0,0-7.513,0c-.268.269-.546.537-.813.806-.621.612-1.263,1.247-1.884,1.913a19.573,19.573,0,0,1-3.532-2.311A36.926,36.926,0,0,1,18.92,21.8a1.93,1.93,0,1,0-2.9,2.547,39.417,39.417,0,0,0,4.934,4.75c.011,0,.011.011.021.011A21.131,21.131,0,0,0,26.166,32.3a.588.588,0,0,0,.129.043,2.544,2.544,0,0,0,2.825-.645l.075-.075c.727-.828,1.5-1.58,2.312-2.386.278-.269.556-.548.835-.828a1.692,1.692,0,0,1,1.038-.58,1.668,1.668,0,0,1,1.038.58l2.611,2.623c.311.312.632.623.931.924.6.58,1.156,1.139,1.691,1.708.01.021.032.033.043.043a1.24,1.24,0,0,1-.021,1.977L36.408,38.96a3.731,3.731,0,0,1-2.44,1.15,13.032,13.032,0,0,1-5.726-1.042,37.952,37.952,0,0,1-11.27-6.8A42.112,42.112,0,0,1,6.045,18.272a20.6,20.6,0,0,1-2.183-7.265,4.112,4.112,0,0,1,1.3-3.546A25.162,25.162,0,0,0,7.1,5.58c.385-.408.749-.785,1.134-1.139l.01-.01a1.289,1.289,0,0,1,2.1-.033l5.276,5.3.032.032a1.442,1.442,0,0,1,.5.914,1.632,1.632,0,0,1-.524,1.01l-3.275,3.289a1.934,1.934,0,0,0,2.729,2.74l3.275-3.288a5.249,5.249,0,0,0,1.659-3.783,5.1,5.1,0,0,0-1.669-3.654L13.087,1.668a5.06,5.06,0,0,0-7.481-.032c-.449.419-.856.849-1.263,1.268a21.474,21.474,0,0,1-1.68,1.634.475.475,0,0,1-.075.064A7.931,7.931,0,0,0,.019,11.254a24.2,24.2,0,0,0,2.548,8.683v.011A46.042,46.042,0,0,0,14.489,35.231a41.962,41.962,0,0,0,12.394,7.458A18.452,18.452,0,0,0,33.251,44c.332,0,.674-.011,1.016-.043h.011a7.575,7.575,0,0,0,4.838-2.267L42.391,38.4l.032-.033a5.1,5.1,0,0,0,0-7.372Z" transform="translate(0 8)"/>
    <path id="Fill_3" data-name="Fill 3" class="cls-2" d="M17.971,15.725a19.155,19.155,0,0,0-5.363-10.35A19.03,19.03,0,0,0,2.273.029a1.942,1.942,0,1,0-.658,3.827,15.228,15.228,0,0,1,8.254,4.28,15.21,15.21,0,0,1,4.283,8.247A1.941,1.941,0,0,0,16.062,18a1.642,1.642,0,0,0,.323-.032,1.942,1.942,0,0,0,1.586-2.242Z" transform="translate(24 10)"/>
    <path id="Fill_4" data-name="Fill 4" class="cls-2" d="M27.971,25.735A31.223,31.223,0,0,0,19.2,8.806,31.208,31.208,0,0,0,2.271.029a1.942,1.942,0,0,0-.657,3.828,27.382,27.382,0,0,1,14.833,7.688,27.325,27.325,0,0,1,7.687,14.838A1.94,1.94,0,0,0,26.042,28a1.648,1.648,0,0,0,.323-.033,1.925,1.925,0,0,0,1.607-2.232Z" transform="translate(24 0)"/>
  </g>
</svg>
