<svg id="chemistry" xmlns="http://www.w3.org/2000/svg" xmlns:xlink="http://www.w3.org/1999/xlink" viewBox="0 0 175.99 176">
  <defs>
    <style>
      .cls-1 {
        fill: url(#linear-gradient);
      }
    </style>
    <linearGradient id="linear-gradient" y1="0.5" x2="1" y2="0.5" gradientUnits="objectBoundingBox">
      <stop offset="0" stop-color="#2d8fff"/>
      <stop offset="1" stop-color="#9bcaff"/>
    </linearGradient>
  </defs>
  <path id="Fill_1" data-name="Fill 1" class="cls-1" d="M93.411,142.3H12.137c-4.333,0-8.049-1.745-10.193-4.787S-.59,130.381.871,126.3l31.215-87.26V5.617H31.15A2.808,2.808,0,1,1,31.15,0H74.4a2.808,2.808,0,1,1,0,5.617h-.936V39.041L104.677,126.3c1.461,4.081,1.07,8.167-1.073,11.21S97.745,142.3,93.411,142.3ZM37.7,5.617v33.91a2.8,2.8,0,0,1-.164.948L6.159,128.191c-.848,2.371-.714,4.532.378,6.085s3.083,2.4,5.6,2.4H93.411c2.518,0,4.507-.854,5.6-2.4s1.226-3.714.378-6.085L68.009,40.475a2.8,2.8,0,0,1-.164-.948V5.617Z" transform="translate(70.443 33.702)"/>
  <path id="Fill_3" data-name="Fill 3" class="cls-1" d="M1.864,47.653a2.806,2.806,0,0,0,3.589-1.7L10.736,31.19a2.851,2.851,0,0,0,.164-.947V2.809a2.809,2.809,0,1,0-5.617,0V29.756L.165,44.062A2.809,2.809,0,0,0,1.864,47.653Z" transform="translate(108.48 44.936)"/>
  <path id="Fill_4" data-name="Fill 4" class="cls-1" d="M71.852,37.54a2.808,2.808,0,1,0-5.288,1.892L74.2,60.778H6.8L26.53,5.617H54.467l8.312,23.238a2.809,2.809,0,0,0,5.29-1.892l-8.98-25.1A2.809,2.809,0,0,0,56.444,0H24.552a2.809,2.809,0,0,0-2.646,1.862L.164,62.641A2.807,2.807,0,0,0,2.808,66.4h75.38a2.809,2.809,0,0,0,2.644-3.754Z" transform="translate(82.718 98.371)"/>
  <path id="Fill_5" data-name="Fill 5" class="cls-1" d="M23.575,36.988l-4.99,2.229A42.081,42.081,0,0,0,.455,54.707a2.809,2.809,0,1,0,4.707,3.066A36.461,36.461,0,0,1,20.876,44.345l6.652-2.973a2.806,2.806,0,0,0,1.664-2.564v-36a2.809,2.809,0,0,0-5.617,0Z" transform="translate(17.617 44.936)"/>
  <path id="Fill_6" data-name="Fill 6" class="cls-1" d="M2.809,28.085a2.81,2.81,0,0,0,2.809-2.809V2.809A2.809,2.809,0,1,0,0,2.809V25.277A2.81,2.81,0,0,0,2.809,28.085Z" transform="translate(41.191 11.234)"/>
  <path id="Fill_8" data-name="Fill 8" class="cls-1" d="M62.848,169.441A47.756,47.756,0,0,1,33.91,79.024a2.808,2.808,0,0,0,1.664-2.565V5.617H71.149V76.459a2.808,2.808,0,0,0,1.664,2.565A47.58,47.58,0,0,1,86.8,88.571a2.809,2.809,0,0,0,3.937-4.008,53.258,53.258,0,0,0-13.973-9.89V5.617H77.7A2.809,2.809,0,0,0,77.7,0H29.021a2.809,2.809,0,0,0,0,5.617h.936V74.672a53.377,53.377,0,0,0,34,100.275,2.808,2.808,0,0,0-1.11-5.506Z"/>
  <path id="Fill_10" data-name="Fill 10" class="cls-1" d="M68.156,5.617a2.809,2.809,0,0,0,0-5.617H4.167A2.808,2.808,0,0,0,1.455,2.075,42.134,42.134,0,0,0,51.78,54.046a2.808,2.808,0,1,0-1.287-5.467A36.5,36.5,0,0,1,6.381,5.617Z" transform="translate(11.234 109.603)"/>
</svg>
