<svg xmlns="http://www.w3.org/2000/svg" xmlns:xlink="http://www.w3.org/1999/xlink" viewBox="0 0 171.607 175.921">
  <defs>
    <style>
      .cls-1 {
        fill: url(#linear-gradient);
      }
    </style>
    <linearGradient id="linear-gradient" y1="0.5" x2="1" y2="0.5" gradientUnits="objectBoundingBox">
      <stop offset="0" stop-color="#2d8fff"/>
      <stop offset="1" stop-color="#9bcaff"/>
    </linearGradient>
  </defs>
  <g id="doctor" transform="translate(0 -0.079)">
    <path id="Fill_1" data-name="Fill 1" class="cls-1" d="M168.658,175.921H2.948a2.95,2.95,0,0,1,0-5.9H22.988v-6.044c0-13.842,3.69-24.525,10.967-31.752a31.725,31.725,0,0,1,13.78-8.011,29.661,29.661,0,0,1,7.6-1.22H70.115v-9.416A40.575,40.575,0,0,1,58.422,106.2a43.107,43.107,0,0,1-7.342-8.685,48.491,48.491,0,0,1-7-17.653,2.527,2.527,0,0,1-.031-.424v-.617a10.353,10.353,0,0,1-5.375-3.181C34.5,71.017,34.738,63.72,35.035,60.8a7.643,7.643,0,0,1,2.909-5.4,11.308,11.308,0,0,1,6.05-2.07V36.581A35.584,35.584,0,0,1,46.432,22.9c2.632-6.626,8.588-14.927,22.013-16.85A115.351,115.351,0,0,1,85.166,4.9c2.351,0,4.523.056,6.269.1l.081,0c1.714.043,3.118.072,4.4.072,6.1,0,9.619-.627,13.131-4.191a2.949,2.949,0,0,1,3.7-.4A2.962,2.962,0,0,1,113.9,4.021l0,.009a6.022,6.022,0,0,0-.273,2.324,3.238,3.238,0,0,0,2.211,2.8c7.891,3.482,11.727,9.685,11.727,18.962V53.332a10.973,10.973,0,0,1,6.03,2.068,7.643,7.643,0,0,1,2.909,5.4c.3,2.922.543,10.217-3.634,14.841a10.352,10.352,0,0,1-5.3,3.165v.632a2.775,2.775,0,0,1-.03.424,48.482,48.482,0,0,1-7.006,17.653,43.117,43.117,0,0,1-7.341,8.685,40.561,40.561,0,0,1-11.694,7.383v9.416h14.77a29.508,29.508,0,0,1,7.394,1.162,33.346,33.346,0,0,1,6.809,2.741,31.236,31.236,0,0,1,7.189,5.328c7.276,7.229,10.965,17.912,10.965,31.752v6.044h20.04a2.95,2.95,0,0,1,0,5.9ZM103.8,128.894v41.128h38.913v-6.044c0-12.213-3.1-21.487-9.223-27.566a26.4,26.4,0,0,0-11.85-6.694v10.6a10.934,10.934,0,0,1,6,5.635,16.616,16.616,0,0,1,1.578,5.156,2.863,2.863,0,0,1,.019.328v8.032a2.948,2.948,0,1,1-5.9,0v-7.834c-.14-.922-1.024-5.546-4.653-5.991-3.624.445-4.513,5.067-4.654,5.99v7.835a2.948,2.948,0,1,1-5.9,0v-8.032a2.632,2.632,0,0,1,.02-.328,16.666,16.666,0,0,1,1.577-5.156,10.933,10.933,0,0,1,6-5.635V128.894Zm-30.3,6.741v34.387H97.907V135.88a15.656,15.656,0,0,1-24.406-.246Zm-22.229-6.249c-6.731,1.4-22.386,7.573-22.386,34.592v6.044H67.6V128.894H57.169v12.037a11.075,11.075,0,1,1-5.9,0V129.386Zm2.948,17.043a5.179,5.179,0,1,0,5.175,5.178A5.184,5.184,0,0,0,54.22,146.429Zm21.792-30.9v10.382a9.788,9.788,0,1,0,19.577,0c0-.013,0-.027,0-.041V115.534a50.626,50.626,0,0,1-9.229,1.442c-.053,0-.114.006-.19.006h-.742c-.077,0-.138,0-.19-.006A50.5,50.5,0,0,1,76.012,115.534Zm-10.29-82.2h0c-4.177,10.345-11.68,13.838-15.781,15V79.193A43.817,43.817,0,0,0,56.155,94.5c6.608,10.146,16.49,15.726,29.372,16.584h.549c12.879-.859,22.762-6.438,29.372-16.584a43.921,43.921,0,0,0,6.214-15.305V50.53c-7.087-.518-12.487-2.969-16.048-7.284A20.194,20.194,0,0,1,101.3,32.8a26.934,26.934,0,0,1-16.42,5.168h-.014a38.2,38.2,0,0,1-6.724-.625,51.768,51.768,0,0,1-12.418-4.009ZM44.044,59.253h0a5.132,5.132,0,0,0-2.48.806A1.736,1.736,0,0,0,40.9,61.4c-.348,3.44.032,7.95,2.145,10.287a4.622,4.622,0,0,0,1,.834V59.253Zm83.518.007V72.475a4.632,4.632,0,0,0,.927-.792c2.115-2.34,2.494-6.848,2.144-10.287a1.733,1.733,0,0,0-.661-1.336A4.833,4.833,0,0,0,127.562,59.26ZM104.3,22.833a2.953,2.953,0,0,1,2.9,3.508,19.571,19.571,0,0,0-.157,4.639,15.247,15.247,0,0,0,3.146,8.541c2.426,2.919,6.287,4.63,11.477,5.084V28.12c0-6.969-2.455-11.025-8.21-13.564A9.2,9.2,0,0,1,108.141,8.8c-3.613,1.8-7.441,2.174-12.077,2.174-1.443,0-2.974-.038-4.455-.075h-.049l-.058,0-.06,0-.065,0h-.011l-.086,0h-.018c-1.705-.044-3.828-.1-6.054-.1a109.766,109.766,0,0,0-15.926,1.1C60.748,13.117,54.9,17.554,51.913,25.083a29.307,29.307,0,0,0-2.025,11.264c0,.056.005.112.005.167v5.621c3.774-1.521,8.8-5.149,11.326-13.8a2.951,2.951,0,0,1,2.831-2.124,2.939,2.939,0,0,1,1.508.415,45.07,45.07,0,0,0,13.781,4.939,32.384,32.384,0,0,0,5.561.51,20.782,20.782,0,0,0,17.091-8.122A2.93,2.93,0,0,1,104.3,22.833Z" transform="translate(0 0.079)"/>
    <path id="Fill_4" data-name="Fill 4" class="cls-1" d="M7,3.5A3.5,3.5,0,1,1,3.5,0,3.5,3.5,0,0,1,7,3.5Z" transform="translate(61 51)"/>
    <path id="Fill_5" data-name="Fill 5" class="cls-1" d="M7,3.5A3.5,3.5,0,1,1,3.5,0,3.5,3.5,0,0,1,7,3.5Z" transform="translate(103 51)"/>
    <path id="Fill_6" data-name="Fill 6" class="cls-1" d="M37.344,4.843A2.984,2.984,0,0,0,36.9.661a2.948,2.948,0,0,0-4.161.447c-.031.039-3.587,3.942-13.01,3.942C9.941,5.05,5.169.967,4.936.761A2.947,2.947,0,0,0,.773.971a2.985,2.985,0,0,0,.192,4.2C1.224,5.412,7.462,11,19.728,11,32.05,11,36.839,5.474,37.344,4.843Z" transform="translate(67 87)"/>
    <path id="Fill_7" data-name="Fill 7" class="cls-1" d="M7.224,10H8.776A7.15,7.15,0,0,0,16,2.941a3.011,3.011,0,0,0-6.021,0,1.191,1.191,0,0,1-1.2,1.178H7.224a1.192,1.192,0,0,1-1.2-1.178A2.977,2.977,0,0,0,3.01,0,2.976,2.976,0,0,0,0,2.941,7.15,7.15,0,0,0,7.224,10Z" transform="translate(78 66)"/>
    <path id="Fill_8" data-name="Fill 8" class="cls-1" d="M4,2A2,2,0,1,1,2,0,2,2,0,0,1,4,2Z" transform="translate(52 150)"/>
  </g>
</svg>
