<svg id="Group" xmlns="http://www.w3.org/2000/svg" viewBox="0 0 750 1162">
  <defs>
    <style>
      .cls-1 {
        fill: #2d8fff;
      }

      .cls-2, .cls-3, .cls-4 {
        fill: #fff;
      }

      .cls-2 {
        opacity: 0.2;
      }

      .cls-3 {
        opacity: 0.4;
      }

      .cls-4 {
        opacity: 0.6;
      }

      .cls-5 {
        fill: #f8fafd;
      }
    </style>
  </defs>
  <rect id="bg" class="cls-1" width="750" height="1161"/>
  <g id="loading" transform="translate(0 1089)">
    <path id="Fill_1" data-name="Fill 1" class="cls-2" d="M0,.22S36.39,22.132,92.364,21.639c37.3-.328,71.379-24.163,121.095-21.419,33.572,1.853,70.479,27.913,107.969,27.539,38.29-.383,78.391-26.519,136.7-27.539S566.684,33.065,613.3,33.878C693.386,35.276,748.674,6.378,750,9.4V73H0Z" transform="translate(0 0)"/>
    <path id="Fill_3" data-name="Fill 3" class="cls-3" d="M0,38.548S26.576,1.63,120.9,2.782c75.122.917,90.334,24.709,134.03,24.761,35.99.042,77.06-25.777,114.532-24.761C406.586,3.788,440.24,30.091,476.6,30.294c35.422.2,65.283-29.32,121.922-30.263s73.362,19.917,98.054,27.512C734.978,39.353,750,41.3,750,41.3V57.216H0Z" transform="translate(0 15.784)"/>
    <path id="Fill_5" data-name="Fill 5" class="cls-4" d="M750,13.044c-36.946,0-42.4,24.161-158.868,22.72-31.588-.39-98.462-34.59-133-35.7-39.882-1.286-81.11,26.113-121.922,25.965C294.508,25.875,256.938,1.6,217.98.061,175.26-1.628,131.094,32.35,96.06,29.271,22.168,22.781,0,3.306,0,3.306V51.3H750Z" transform="translate(0 21.703)"/>
    <path id="Fill_7" data-name="Fill 7" class="cls-5" d="M750,29.737c-4.554,2.548-35.176,6.171-96.06-2.7C625.5,22.887,600.256,3.147,565.27,2.7c-34.838-.442-79.694,22.254-118.226,21.626C391.626,23.43,370.58,2.808,332.512,2.7c-36.66-.1-65.4,15.222-99.754,16.22C181.374,20.417,136.63.109,96.06,0,27.588-.183,0,27.035,0,27.035V45.378H750Z" transform="translate(0 27.622)"/>
  </g>
</svg>
