<svg id="drug" xmlns="http://www.w3.org/2000/svg" xmlns:xlink="http://www.w3.org/1999/xlink" viewBox="0 0 92 140.5">
  <defs>
    <style>
      .cls-1 {
        fill: #dedddd;
      }

      .cls-2 {
        fill: #cecccc;
      }

      .cls-3 {
        fill: #7f7d87;
      }

      .cls-4 {
        fill: #726d79;
      }

      .cls-5 {
        fill: #645f6c;
      }

      .cls-6 {
        fill: url(#linear-gradient);
      }

      .cls-7 {
        fill: #138dc2;
      }

      .cls-8 {
        fill: #f2f2ef;
      }
    </style>
    <linearGradient id="linear-gradient" y1="0.5" x2="1" y2="0.5" gradientUnits="objectBoundingBox">
      <stop offset="0" stop-color="#2d8fff"/>
      <stop offset="1" stop-color="#9bcaff"/>
    </linearGradient>
  </defs>
  <path id="Fill_1" data-name="Fill 1" class="cls-1" d="M72.286,6.566H65.714V2.189A2.19,2.19,0,0,0,63.524,0H28.476a2.19,2.19,0,0,0-2.19,2.189V6.566H19.714A19.728,19.728,0,0,0,0,26.264V96.3A19.728,19.728,0,0,0,19.714,116H72.286A19.728,19.728,0,0,0,92,96.3V26.264a19.728,19.728,0,0,0-19.714-19.7" transform="translate(0 24.5)"/>
  <path id="Fill_2" data-name="Fill 2" class="cls-2" d="M78.764,109.434H19.691A13.13,13.13,0,0,1,6.564,96.3V24.075A13.13,13.13,0,0,1,19.691,10.943h10.94a2.188,2.188,0,0,0,2.188-2.189V0H28.443a2.188,2.188,0,0,0-2.188,2.189V6.566H19.691A19.7,19.7,0,0,0,0,26.264V96.3A19.7,19.7,0,0,0,19.691,116H72.2A19.7,19.7,0,0,0,89,106.566a19.594,19.594,0,0,1-10.236,2.868" transform="translate(0 24.5)"/>
  <path id="Fill_3" data-name="Fill 3" class="cls-3" d="M50.423,0H6.577A6.585,6.585,0,0,0,0,6.577V21.923A6.585,6.585,0,0,0,6.577,28.5H50.423A6.585,6.585,0,0,0,57,21.923V6.577A6.585,6.585,0,0,0,50.423,0" transform="translate(18)"/>
  <path id="Fill_4" data-name="Fill 4" class="cls-4" d="M6.5,21.923V6.577A6.546,6.546,0,0,1,13,0H6.5A6.546,6.546,0,0,0,0,6.577V21.923A6.546,6.546,0,0,0,6.5,28.5H13a6.546,6.546,0,0,1-6.5-6.577" transform="translate(18)"/>
  <path id="Fill_5" data-name="Fill 5" class="cls-5" d="M2,15.5a2.115,2.115,0,0,1-2-2.214V2.214A2.115,2.115,0,0,1,2,0,2.115,2.115,0,0,1,4,2.214V13.286A2.115,2.115,0,0,1,2,15.5" transform="translate(43.5 6.5)"/>
  <path id="Fill_6" data-name="Fill 6" class="cls-5" d="M2,15.5a2.115,2.115,0,0,1-2-2.214V2.214A2.115,2.115,0,0,1,2,0,2.115,2.115,0,0,1,4,2.214V13.286A2.115,2.115,0,0,1,2,15.5" transform="translate(53 6.5)"/>
  <path id="Fill_7" data-name="Fill 7" class="cls-5" d="M2,15.5a2.115,2.115,0,0,1-2-2.214V2.214A2.115,2.115,0,0,1,2,0,2.115,2.115,0,0,1,4,2.214V13.286A2.115,2.115,0,0,1,2,15.5" transform="translate(61 6.5)"/>
  <path id="Fill_8" data-name="Fill 8" class="cls-5" d="M2,15.5a2.115,2.115,0,0,1-2-2.214V2.214A2.115,2.115,0,0,1,2,0,2.115,2.115,0,0,1,4,2.214V13.286A2.115,2.115,0,0,1,2,15.5" transform="translate(35 6.5)"/>
  <path id="Fill_9" data-name="Fill 9" class="cls-5" d="M2,15.5a2.115,2.115,0,0,1-2-2.214V2.214A2.115,2.115,0,0,1,2,0,2.115,2.115,0,0,1,4,2.214V13.286A2.115,2.115,0,0,1,2,15.5" transform="translate(26 6.5)"/>
  <path id="Fill_10" data-name="Fill 10" class="cls-6" d="M89.81,0H2.19A2.187,2.187,0,0,0,0,2.183V63.317A2.187,2.187,0,0,0,2.19,65.5H89.81A2.187,2.187,0,0,0,92,63.317V2.183A2.187,2.187,0,0,0,89.81,0" transform="translate(0 53)"/>
  <path id="Fill_11" data-name="Fill 11" class="cls-7" d="M2.167,0A2.175,2.175,0,0,0,0,2.183V63.317A2.175,2.175,0,0,0,2.167,65.5H6.5V0H2.167" transform="translate(0 53)"/>
  <path id="Fill_12" data-name="Fill 12" class="cls-8" d="M32.813,10.938h-8.75V2.188A2.188,2.188,0,0,0,21.875,0h-8.75a2.188,2.188,0,0,0-2.187,2.188v8.75H2.188A2.188,2.188,0,0,0,0,13.125v8.75a2.188,2.188,0,0,0,2.188,2.188h8.75v8.75A2.188,2.188,0,0,0,13.125,35h8.75a2.188,2.188,0,0,0,2.188-2.187v-8.75h8.75A2.188,2.188,0,0,0,35,21.875v-8.75a2.188,2.188,0,0,0-2.187-2.187" transform="translate(28.5 68)"/>
</svg>
