<svg xmlns="http://www.w3.org/2000/svg" xmlns:xlink="http://www.w3.org/1999/xlink" viewBox="0 0 271 176">
  <defs>
    <style>
      .cls-1 {
        fill: url(#linear-gradient);
      }
    </style>
    <linearGradient id="linear-gradient" y1="0.5" x2="1" y2="0.5" gradientUnits="objectBoundingBox">
      <stop offset="0" stop-color="#2d8fff"/>
      <stop offset="1" stop-color="#9bcaff"/>
    </linearGradient>
  </defs>
  <g id="EYE" transform="translate(-0.473)">
    <path id="Fill_1" data-name="Fill 1" class="cls-1" d="M135.95,176a124.83,124.83,0,0,1-26.673-2.893A127.617,127.617,0,0,1,83.4,164.429a133.943,133.943,0,0,1-24.271-14.461,145.307,145.307,0,0,1-21.87-20.241L0,87.482,36.347,46.275A145.3,145.3,0,0,1,58.224,26.03,133.936,133.936,0,0,1,82.5,11.569a127.641,127.641,0,0,1,25.876-8.677,124.459,124.459,0,0,1,53.35,0A127.61,127.61,0,0,1,187.6,11.569,133.887,133.887,0,0,1,211.872,26.03a145.24,145.24,0,0,1,21.871,20.245L271,88.519l-36.342,41.207a145.293,145.293,0,0,1-21.87,20.241,133.929,133.929,0,0,1-24.274,14.461,127.645,127.645,0,0,1-25.879,8.678A124.933,124.933,0,0,1,135.95,176ZM134.367,11.1c-34.862,0-67.6,15.37-92.182,43.28L12.318,88.271,43.083,123.2c24.58,27.912,57.315,43.284,92.177,43.284s67.6-15.372,92.181-43.284L257.313,89.31,226.549,54.379C201.966,26.47,169.228,11.1,134.367,11.1Z" transform="translate(0.473)"/>
    <path id="Fill_3" data-name="Fill 3" class="cls-1" d="M30.806,0A30.835,30.835,0,0,0,0,30.806a4.4,4.4,0,0,0,8.806,0,22.013,22.013,0,0,1,22-22,4.4,4.4,0,0,0,0-8.81Z" transform="translate(106.144 55.793)"/>
    <path id="Fill_4" data-name="Fill 4" class="cls-1" d="M55.595,111.217A55.616,55.616,0,1,1,111.217,55.6,55.669,55.669,0,0,1,55.595,111.217Zm0-102.651A47.043,47.043,0,1,0,102.65,55.6,47.088,47.088,0,0,0,55.595,8.565Z" transform="translate(80.365 31.599)"/>
  </g>
</svg>
