<svg xmlns="http://www.w3.org/2000/svg" xmlns:xlink="http://www.w3.org/1999/xlink" viewBox="0 0 111.944 81.98">
  <defs>
    <style>
      .cls-1 {
        fill: none;
      }

      .cls-2 {
        clip-path: url(#clip-path);
      }

      .cls-3 {
        fill: url(#linear-gradient);
      }
    </style>
    <clipPath id="clip-path">
      <path id="Clip_2" data-name="Clip 2" class="cls-1" d="M0,81.98H111.944V0H0Z" transform="translate(0.013 0.02)"/>
    </clipPath>
    <linearGradient id="linear-gradient" y1="0.5" x2="1" y2="0.5" gradientUnits="objectBoundingBox">
      <stop offset="0" stop-color="#2d8fff"/>
      <stop offset="1" stop-color="#9bcaff"/>
    </linearGradient>
  </defs>
  <g id="hospital" transform="translate(-0.013 -0.02)">
    <g id="Group_4" data-name="Group 4">
      <path id="Clip_2-2" data-name="Clip 2" class="cls-1" d="M0,81.98H111.944V0H0Z" transform="translate(0.013 0.02)"/>
      <g id="Group_4-2" data-name="Group 4" class="cls-2">
        <path id="Fill_1" data-name="Fill 1" class="cls-3" d="M10.473,16.128H5.656a1.644,1.644,0,0,1-1.642-1.642V12.115H1.643A1.644,1.644,0,0,1,0,10.472V5.656A1.644,1.644,0,0,1,1.643,4.013H4.013V1.643A1.644,1.644,0,0,1,5.656,0h4.817a1.644,1.644,0,0,1,1.643,1.643V4.013h2.371a1.644,1.644,0,0,1,1.642,1.642v4.817a1.644,1.644,0,0,1-1.642,1.643H12.115v2.371a1.641,1.641,0,0,1-1.642,1.642ZM3.285,7.3V8.831H6.2A1.1,1.1,0,0,1,7.3,9.925v2.918H8.831V9.925A1.1,1.1,0,0,1,9.925,8.831h2.918V7.3H9.925A1.1,1.1,0,0,1,8.831,6.2V3.285H7.3V6.2A1.1,1.1,0,0,1,6.2,7.3Z" transform="translate(47.925 6.441)"/>
        <path id="Fill_3" data-name="Fill 3" class="cls-3" d="M78.657,81.981h0L35.189,81.96a1.7,1.7,0,0,1-.247.02H2.737A2.74,2.74,0,0,1,0,79.243V76.918a1.643,1.643,0,1,1,3.285,0V78.7H33.3V36.515H3.285V65.421a1.643,1.643,0,0,1-3.285,0V35.968a2.74,2.74,0,0,1,2.737-2.737H33.321V15.58a2.74,2.74,0,0,1,2.737-2.738H41.59a14.484,14.484,0,0,1,28.778,0H75.92a2.74,2.74,0,0,1,2.737,2.737v66.4ZM44.629,58.459h22.7A2.74,2.74,0,0,1,70.066,61.2V78.675h5.305V16.127h-5a14.482,14.482,0,0,1-28.778,0H36.606V78.675h5.286V61.2A2.741,2.741,0,0,1,44.629,58.459Zm.547,3.285V78.675h21.6V61.744Zm10.8-58.459a11.2,11.2,0,1,0,11.2,11.2A11.213,11.213,0,0,0,55.979,3.285Z" transform="translate(0 0.02)"/>
      </g>
    </g>
    <path id="Fill_5" data-name="Fill 5" class="cls-3" d="M8.227,10.964H2.737A2.74,2.74,0,0,1,0,8.227V2.737A2.74,2.74,0,0,1,2.737,0h5.49a2.74,2.74,0,0,1,2.737,2.737v5.49A2.74,2.74,0,0,1,8.227,10.964ZM3.285,3.285V7.679H7.68V3.285Z" transform="translate(43.606 31.46)"/>
    <path id="Fill_6" data-name="Fill 6" class="cls-3" d="M8.227,10.964H2.737A2.74,2.74,0,0,1,0,8.227V2.737A2.74,2.74,0,0,1,2.737,0h5.49a2.74,2.74,0,0,1,2.737,2.737v5.49A2.74,2.74,0,0,1,8.227,10.964ZM3.285,3.285V7.679H7.68V3.285Z" transform="translate(57.388 31.46)"/>
    <path id="Fill_7" data-name="Fill 7" class="cls-3" d="M8.227,10.964H2.737A2.74,2.74,0,0,1,0,8.227V2.737A2.74,2.74,0,0,1,2.737,0h5.49a2.74,2.74,0,0,1,2.737,2.737v5.49A2.74,2.74,0,0,1,8.227,10.964ZM3.285,3.285V7.679H7.68V3.285Z" transform="translate(43.606 44.865)"/>
    <path id="Fill_8" data-name="Fill 8" class="cls-3" d="M8.227,10.964H2.737A2.74,2.74,0,0,1,0,8.227V2.737A2.74,2.74,0,0,1,2.737,0h5.49a2.74,2.74,0,0,1,2.737,2.737v5.49A2.74,2.74,0,0,1,8.227,10.964ZM3.285,3.285V7.679H7.68V3.285Z" transform="translate(57.388 44.865)"/>
    <path id="Fill_13" data-name="Fill 13" class="cls-3" d="M8.227,10.964H2.737A2.74,2.74,0,0,1,0,8.227V2.737A2.74,2.74,0,0,1,2.737,0h5.49a2.74,2.74,0,0,1,2.737,2.737v5.49A2.74,2.74,0,0,1,8.227,10.964ZM3.285,3.285V7.679H7.679V3.285Z" transform="translate(5.92 40.251)"/>
    <path id="Fill_14" data-name="Fill 14" class="cls-3" d="M8.227,10.964H2.737A2.74,2.74,0,0,1,0,8.227V2.737A2.74,2.74,0,0,1,2.737,0h5.49a2.74,2.74,0,0,1,2.737,2.737v5.49A2.74,2.74,0,0,1,8.227,10.964ZM3.285,3.285V7.679H7.679V3.285Z" transform="translate(19.701 40.251)"/>
    <path id="Fill_15" data-name="Fill 15" class="cls-3" d="M8.227,10.964H2.737A2.74,2.74,0,0,1,0,8.227V2.737A2.74,2.74,0,0,1,2.737,0h5.49a2.74,2.74,0,0,1,2.737,2.737v5.49A2.74,2.74,0,0,1,8.227,10.964ZM3.285,3.285V7.679H7.679V3.285Z" transform="translate(5.92 53.656)"/>
    <path id="Fill_16" data-name="Fill 16" class="cls-3" d="M8.227,10.964H2.737A2.74,2.74,0,0,1,0,8.227V2.737A2.74,2.74,0,0,1,2.737,0h5.49a2.74,2.74,0,0,1,2.737,2.737v5.49A2.74,2.74,0,0,1,8.227,10.964ZM3.285,3.285V7.679H7.679V3.285Z" transform="translate(19.701 53.656)"/>
  </g>
</svg>
