<svg xmlns="http://www.w3.org/2000/svg" xmlns:xlink="http://www.w3.org/1999/xlink" viewBox="0 0 238.689 174.981">
  <defs>
    <style>
      .cls-1 {
        fill: url(#linear-gradient);
      }
    </style>
    <linearGradient id="linear-gradient" y1="0.5" x2="1" y2="0.5" gradientUnits="objectBoundingBox">
      <stop offset="0" stop-color="#2d8fff"/>
      <stop offset="1" stop-color="#9bcaff"/>
    </linearGradient>
  </defs>
  <g id="human-uterus" transform="translate(-0.001 -0.417)">
    <g id="icon">
      <path id="Fill_3" data-name="Fill 3" class="cls-1" d="M16.937.461a2.045,2.045,0,0,0-2.881.294C13.588,1.332,2.541,15.365,0,58.543a2.05,2.05,0,0,0,1.925,2.166c.04,0,.08,0,.12,0a2.052,2.052,0,0,0,2.046-1.928C6.536,17.27,17.1,3.511,17.239,3.336A2.047,2.047,0,0,0,16.937.461Z" transform="translate(122.506 47.386)"/>
      <path id="Fill_5" data-name="Fill 5" class="cls-1" d="M133.274,174.981a2.3,2.3,0,0,1-1.5-.561c-2.62-2.3-7.616-3.844-12.433-3.844s-9.811,1.545-12.434,3.844a2.294,2.294,0,0,1-1.495.56,1.991,1.991,0,0,1-1.61-3.171c.136-.326.836-2.246,1.238-8.07.242-3.493-1.29-10.044-2.771-16.378l-.009-.039c-1.544-6.6-3-12.832-2.867-16.872.22-6.564-1.105-10.46-2.508-14.585l-.007-.022c-.154-.445-.308-.9-.46-1.356-1.412-4.239-2.662-10.369.236-20.218.4-1.381.822-2.671,1.127-3.613l.027-.082.006-.019c1.916-5.929,2.561-7.926-1.328-12.927-5.342-6.869-11.383-22.061-12.055-23.771a1.387,1.387,0,0,0-.363-.039c-.563,0-1.947.2-4.889,1.545-3.01,1.373-6.689,3.493-10.248,5.542l-.033.019-.048.027c-2.752,1.584-4.74,2.769-5.807,3.405l-.007,0a27.485,27.485,0,0,1-6.354,3.172,20.231,20.231,0,0,1-6.465,1.147,15.187,15.187,0,0,1-7.691-2.056A21.545,21.545,0,0,1,36,60.47a47.42,47.42,0,0,1-7.658.629,34.129,34.129,0,0,1-9.581-1.242C10.4,57.4,2.964,48.4.682,37.961c-1.981-9.07.4-17.336,6.535-22.678a30.385,30.385,0,0,1,9.439-5.626,31.437,31.437,0,0,1,10.929-1.9,36.4,36.4,0,0,1,4.235.252A50.5,50.5,0,0,1,54.769,17.36c5.348,3.841,9.912,6.4,14.8,6.4,4.866,0,9.4-2.656,13.862-8.119A38.616,38.616,0,0,1,93.74,6.849a47.477,47.477,0,0,1,10.927-4.671A54.017,54.017,0,0,1,119.015,0l.266,0h.12l.255,0a54.092,54.092,0,0,1,14.328,2.167,47.509,47.509,0,0,1,10.944,4.67,38.6,38.6,0,0,1,10.326,8.8c4.461,5.463,9,8.119,13.862,8.119,4.891,0,9.456-2.558,14.806-6.4a50.5,50.5,0,0,1,22.946-9.355,36.38,36.38,0,0,1,4.235-.252,31.44,31.44,0,0,1,10.93,1.9,30.362,30.362,0,0,1,9.438,5.626c6.136,5.341,8.518,13.607,6.537,22.678-2.281,10.434-9.715,19.438-18.078,21.9a34.159,34.159,0,0,1-9.585,1.241,46.884,46.884,0,0,1-7.655-.628,21.525,21.525,0,0,1-6.529,6.152,15.194,15.194,0,0,1-7.692,2.056A20.2,20.2,0,0,1,182,67.531a27.423,27.423,0,0,1-6.347-3.167l-.011-.007c-1.321-.786-3.13-1.862-5.809-3.406l-.063-.036-.006,0c-3.564-2.053-7.249-4.175-10.26-5.549-2.938-1.344-4.326-1.544-4.891-1.544a1.418,1.418,0,0,0-.361.038c-.671,1.709-6.715,16.9-12.054,23.771-3.889,5-3.244,7-1.327,12.926.393,1.211.778,2.407,1.163,3.715,2.9,9.85,1.645,15.979.233,20.218-.165.5-.332.987-.459,1.356l0,.01c-1.4,4.13-2.731,8.03-2.511,14.6.135,4.026-1.318,10.242-2.857,16.822l0,.015-.008.036,0,.021c-1.484,6.343-3.019,12.9-2.777,16.4.4,5.819,1.1,7.744,1.238,8.07a1.992,1.992,0,0,1-1.61,3.172Zm-13.928-8.5a27.518,27.518,0,0,1,10.668,2.137c-.186-1.344-.34-2.89-.457-4.6a25.945,25.945,0,0,1,.316-5.249H117.164a2.048,2.048,0,1,1,0-4.1h13.424c.517-2.6,1.161-5.35,1.843-8.266l.005-.022.008-.033c1.411-6.039,2.871-12.284,2.755-15.767a40.19,40.19,0,0,1,2.729-16.058l0-.007c.162-.471.31-.907.452-1.333,1.3-3.9,2.281-9.057-.28-17.766-.376-1.281-.758-2.463-1.095-3.506l-.033-.1c-2.015-6.231-3.232-9.992,1.988-16.7,5.093-6.55,11.254-22.181,11.514-22.843,0-.011.008-.021.012-.031s.008-.02.012-.03a3.914,3.914,0,0,1,2.425-2.228,5.364,5.364,0,0,1,1.7-.257c3.662,0,8.962,2.9,17.254,7.674,2.508,1.445,4.3,2.507,5.861,3.44l.031.018a23.439,23.439,0,0,0,5.548,2.792,15.939,15.939,0,0,0,5.1.911c6.269,0,9.9-4.659,12.078-8.163,3.17-5.088,2.138-8.89.881-9.795a9.486,9.486,0,0,0-5.553-1.481c-3.149,0-8.525.978-16.252,5.639a12.788,12.788,0,0,1-6.4,1.415,26.366,26.366,0,0,1-9.3-1.821,29.1,29.1,0,0,1-9.532-5.963,4.674,4.674,0,0,1-.9-5.427,4.118,4.118,0,0,1,3.811-2.085,7.8,7.8,0,0,1,1.879.251,19.494,19.494,0,0,1,3.982,1.66l0,0c2.1,1.058,4.27,2.151,7,2.151a13.66,13.66,0,0,0,6.261-1.718c2.428-1.248,4.955-3.781,7.63-6.464l.027-.027a60.151,60.151,0,0,1,10.213-8.757,27.012,27.012,0,0,1,14.872-4.453,33.519,33.519,0,0,1,8.72,1.228c8.25,2.234,8.358,7.792,8.022,10.077-.492,3.332-2.835,6.978-6.427,10a26.365,26.365,0,0,1-13.211,5.95c.944,2.864.519,6.375-1.193,9.884a45.045,45.045,0,0,0,5.353.329,29.99,29.99,0,0,0,8.4-1.071C225.654,53.9,232.059,45.98,234,37.085c.972-4.443,1.587-12.782-5.221-18.711a26.058,26.058,0,0,0-17.61-6.47c-8.023,0-17.085,3.2-24.862,8.785a52.828,52.828,0,0,1-7.309,4.6,22,22,0,0,1-9.864,2.557,17.756,17.756,0,0,1-8.3-2.1,28.965,28.965,0,0,1-8.752-7.516c-4.706-5.764-11.336-9.876-19.7-12.223A50.586,50.586,0,0,0,119.566,4.1h-.426a50.571,50.571,0,0,0-12.783,1.911c-8.4,2.35-15.045,6.462-19.748,12.222a28.963,28.963,0,0,1-8.751,7.514,17.755,17.755,0,0,1-8.3,2.1,21.985,21.985,0,0,1-9.866-2.556,52.82,52.82,0,0,1-7.31-4.6C44.6,15.106,35.542,11.9,27.519,11.9a26.064,26.064,0,0,0-17.612,6.47C3.1,24.3,3.715,32.642,4.686,37.085,6.63,45.98,13.035,53.9,19.916,55.923a29.991,29.991,0,0,0,8.4,1.071,45.152,45.152,0,0,0,5.354-.329c-1.714-3.511-2.137-7.021-1.193-9.884a26.352,26.352,0,0,1-13.212-5.949c-3.592-3.024-5.935-6.669-6.427-10-.337-2.286-.229-7.844,8.022-10.077a33.528,33.528,0,0,1,8.719-1.227,27.017,27.017,0,0,1,14.871,4.451A60.158,60.158,0,0,1,54.661,32.73l0,0,.01.01c2.68,2.69,5.212,5.231,7.645,6.481a13.673,13.673,0,0,0,6.262,1.717c2.731,0,4.9-1.094,7-2.153a19.623,19.623,0,0,1,3.983-1.66,7.8,7.8,0,0,1,1.879-.251,4.114,4.114,0,0,1,3.81,2.085,4.674,4.674,0,0,1-.9,5.427,29.092,29.092,0,0,1-9.531,5.963,26.369,26.369,0,0,1-9.305,1.822,12.782,12.782,0,0,1-6.4-1.416c-7.71-4.651-13.085-5.627-16.237-5.627A9.631,9.631,0,0,0,37.321,46.6l-.006,0c-1.249.917-2.272,4.732.882,9.8,2.183,3.5,5.81,8.163,12.079,8.163a15.948,15.948,0,0,0,5.1-.911,23.523,23.523,0,0,0,5.556-2.8l.02-.012c1.262-.752,3.164-1.885,5.861-3.44C75.1,52.623,80.4,49.724,84.066,49.724a5.3,5.3,0,0,1,1.7.257,3.91,3.91,0,0,1,2.422,2.228l.006.013c.007.016.013.031.021.048.015.038,1.624,4.139,3.851,9,2.027,4.426,5,10.42,7.659,13.841,5.22,6.711,4.005,10.471,1.992,16.7-.382,1.176-.757,2.338-1.13,3.611-2.56,8.7-1.577,13.866-.278,17.766.152.456.306.909.45,1.333a40.629,40.629,0,0,1,2.754,14.3h11.642a2.048,2.048,0,1,1,0,4.1H103.594a86.093,86.093,0,0,0,1.774,9.644h14.126a2.05,2.05,0,1,1,0,4.1H106.317l.006.02c1.521,6.5,3.093,13.23,2.809,17.342-.117,1.7-.27,3.242-.455,4.6A27.515,27.515,0,0,1,119.346,166.479ZM157.229,40.944a.264.264,0,0,0-.2.058c-.082.1.048.327.12.414a24.076,24.076,0,0,0,16.018,6.692,8.9,8.9,0,0,0,4.289-.859C184.328,43.1,190.474,41,195.719,41a14.064,14.064,0,0,1,7.473,1.893,22.023,22.023,0,0,0,12.337-4.214c3.516-2.511,5.86-5.67,6.27-8.448.391-2.654-1.3-4.512-5.037-5.521a29.634,29.634,0,0,0-7.7-1.094c-10.171,0-16.527,6.381-22.135,12.011-2.921,2.931-5.68,5.7-8.689,7.244a17.641,17.641,0,0,1-8.139,2.177,18.993,18.993,0,0,1-8.836-2.6l-.037-.018a16.42,16.42,0,0,0-3.1-1.328A4.282,4.282,0,0,0,157.229,40.944ZM42.969,41c5.244,0,11.391,2.1,18.268,6.248a8.889,8.889,0,0,0,4.287.858A24.088,24.088,0,0,0,81.556,41.4c.065-.078.189-.3.108-.4a.264.264,0,0,0-.2-.058,4.3,4.3,0,0,0-.9.163,16.494,16.494,0,0,0-3.12,1.337l-.013.007a19.011,19.011,0,0,1-8.841,2.6,17.656,17.656,0,0,1-8.139-2.176c-3-1.542-5.754-4.3-8.664-7.221l-.023-.023C46.152,30,39.8,23.617,29.625,23.617a29.645,29.645,0,0,0-7.7,1.094c-3.736,1.01-5.431,2.867-5.038,5.521.411,2.778,2.756,5.935,6.271,8.447A22.028,22.028,0,0,0,35.5,42.894,14.064,14.064,0,0,1,42.969,41Z" transform="translate(0 0.417)"/>
    </g>
  </g>
</svg>
