<svg xmlns="http://www.w3.org/2000/svg" xmlns:xlink="http://www.w3.org/1999/xlink" viewBox="0 0 667 200">
  <defs>
    <style>
      .cls-1 {
        fill: #fff;
      }

      .cls-2 {
        clip-path: url(#clip-path);
      }

      .cls-3 {
        opacity: 0.14;
        fill: url(#linear-gradient);
      }

      .cls-4 {
        fill: url(#linear-gradient-2);
      }

      .cls-5 {
        fill: #2d8fff;
        font-size: 28px;
        font-family: SegoeUI, Segoe UI;
        letter-spacing: 0.018em;
      }

      .cls-6 {
        filter: url(#Mask);
      }
    </style>
    <filter id="Mask" x="-54" y="-40" width="775" height="308" filterUnits="userSpaceOnUse">
      <feOffset dy="14" input="SourceAlpha"/>
      <feGaussianBlur stdDeviation="18" result="blur"/>
      <feFlood flood-color="#3499f6" flood-opacity="0.29"/>
      <feComposite operator="in" in2="blur"/>
      <feComposite in="SourceGraphic"/>
    </filter>
    <clipPath id="clip-path">
      <g class="cls-6" transform="matrix(1, 0, 0, 1, 0, 0)">
        <rect id="Mask-2" data-name="Mask" class="cls-1" width="667" height="200" rx="16"/>
      </g>
    </clipPath>
    <linearGradient id="linear-gradient" y1="0.5" x2="1" y2="0.5" gradientUnits="objectBoundingBox">
      <stop offset="0" stop-color="#c5e9ff"/>
      <stop offset="1" stop-color="#2057dd"/>
    </linearGradient>
    <linearGradient id="linear-gradient-2" y1="0.5" x2="1" y2="0.5" gradientUnits="objectBoundingBox">
      <stop offset="0" stop-color="#2d8fff"/>
      <stop offset="1" stop-color="#9bcaff"/>
    </linearGradient>
  </defs>
  <g id="Mask-3" data-name="Mask" class="cls-2">
    <path id="Mask-4" data-name="Mask" class="cls-3" d="M194.513,42.39H136.092c-4.712,0-8.53-4.745-8.53-10.6s3.818-10.6,8.53-10.6H168.52c4.71,0,8.529-4.745,8.529-10.6S173.23,0,168.52,0H42.148c-4.711,0-8.53,4.745-8.53,10.6s3.819,10.6,8.53,10.6h36.5c4.711,0,8.53,4.745,8.53,10.6s-3.819,10.6-8.53,10.6H8.53C3.819,42.39,0,47.135,0,52.988s3.819,10.6,8.53,10.6h40.6c4.711,0,8.529,4.745,8.529,10.6s-3.818,10.6-8.529,10.6H29.754c-4.711,0-8.53,4.744-8.53,10.6s3.819,10.6,8.53,10.6H156.126c4.711,0,8.53-4.745,8.53-10.6s-3.819-10.6-8.53-10.6H106.573c-4.711,0-8.53-4.745-8.53-10.6s3.819-10.6,8.53-10.6h87.94c4.711,0,8.529-4.744,8.529-10.6S199.224,42.39,194.513,42.39Z" transform="translate(-12 94.809) rotate(-25)"/>
    <g id="placeholder" transform="translate(194 106)">
      <path id="Fill_1" data-name="Fill 1" class="cls-4" d="M12.951,31.868a2.175,2.175,0,0,1-1.4-.506c-6.187-5.131-9.054-9.9-10.369-13a13.112,13.112,0,0,1-.862-2.547,4.213,4.213,0,0,1-.091-.435A12.951,12.951,0,0,1,12.49.007c.148,0,.3-.007.446-.007A12.954,12.954,0,0,1,25.9,12.95a13.294,13.294,0,0,1-.227,2.43c0,.016-.023.16-.091.435a12.688,12.688,0,0,1-.862,2.547c-1.314,3.094-4.18,7.861-10.37,13A2.171,2.171,0,0,1,12.951,31.868Zm.007-29.541c-.129,0-.26,0-.39.007A10.621,10.621,0,0,0,2.381,11.906a10.285,10.285,0,0,0,.162,3.059.13.13,0,0,0,0,.026.13.13,0,0,1,0,.026c.006.028.024.113.059.265V15.3A10.467,10.467,0,0,0,3.32,17.4a.113.113,0,0,0,.013.032C4.54,20.282,7.189,24.686,12.957,29.5c5.772-4.819,8.42-9.219,9.625-12.061a.11.11,0,0,1,.013-.032,10.561,10.561,0,0,0,.713-2.107v-.013c.035-.152.053-.237.059-.266a.13.13,0,0,1,0-.026.129.129,0,0,0,0-.026A10.618,10.618,0,0,0,12.958,2.327Z" transform="translate(0 0.051)"/>
      <path id="Fill_4" data-name="Fill 4" class="cls-4" d="M6.9,0a6.9,6.9,0,0,0,0,13.791,1.167,1.167,0,1,0,0-2.333,4.568,4.568,0,1,1,3.467-1.6,1.168,1.168,0,1,0,1.776,1.516A6.9,6.9,0,0,0,6.9,0Z" transform="translate(6.055 6.235)"/>
    </g>
    <text id="_0.8_km_away" data-name="0.8 km away" class="cls-5" transform="translate(230 104)"><tspan x="0" y="30">0.8 km away</tspan></text>
  </g>
</svg>
