<svg xmlns="http://www.w3.org/2000/svg" viewBox="0 0 959 640.955">
  <defs>
    <style>
      .cls-1 {
        fill: #64acff;
        stroke: #979797;
        stroke-miterlimit: 10;
      }

      .cls-2, .cls-3, .cls-4, .cls-5, .cls-6 {
        fill: #fff;
      }

      .cls-2 {
        opacity: 0.2;
      }

      .cls-3 {
        opacity: 0.4;
      }

      .cls-4 {
        opacity: 0.6;
      }

      .cls-6 {
        opacity: 0.143;
      }

      .cls-7 {
        stroke: none;
      }

      .cls-8 {
        fill: none;
      }
    </style>
  </defs>
  <g id="Group_1" data-name="Group 1" transform="translate(13 16.955)">
    <g id="detail" transform="translate(-13 624)">
      <g id="Rectangle_25" data-name="Rectangle 25" class="cls-1" transform="translate(12 -634)">
        <rect class="cls-7" width="100%" height="633"/>
        <rect class="cls-8" x="0.5" y="0.5" width="759" height="632"/>
      </g>
      <g id="loading" transform="translate(0 -94)">
        <path id="Fill_1" data-name="Fill 1" class="cls-2" d="M0,.283S46.531,28.5,118.1,27.864c47.692-.422,91.269-31.114,154.84-27.58C315.87,2.67,363.062,36.227,411,35.745,459.959,35.252,511.236,1.6,585.793.283S724.6,42.576,784.206,43.623C886.61,45.424,957.3,8.213,959,12.1V94H0Z" transform="translate(0 0)"/>
        <path id="Fill_3" data-name="Fill 3" class="cls-3" d="M0,49.71S33.982,2.1,154.585,3.587c96.056,1.183,115.507,31.865,171.38,31.932,46.019.054,98.534-33.242,146.448-31.932,47.474,1.3,90.507,35.218,137,35.479C654.705,39.32,692.888,1.256,765.31.04s93.806,25.684,125.379,35.479C939.792,50.749,959,53.258,959,53.258V73.785H0Z" transform="translate(0 20.215)"/>
        <path id="Fill_5" data-name="Fill 5" class="cls-4" d="M959,16.705c-47.242,0-54.21,30.944-203.139,29.1C715.47,45.3,629.961,1.5,585.793.078c-51-1.647-103.713,33.444-155.9,33.255C376.578,33.139,328.538,2.049,278.724.078c-54.625-2.163-111.1,41.354-155.9,37.411C28.345,29.177,0,4.234,0,4.234V65.7H959Z" transform="translate(0 28.301)"/>
        <path id="Fill_7" data-name="Fill 7" class="cls-5" d="M959,38.417c-5.823,3.291-44.978,7.972-122.829-3.492C799.8,29.568,767.527,4.066,722.792,3.493c-44.546-.571-101.9,28.75-151.172,27.939-70.861-1.163-97.772-27.8-146.448-27.939C378.3,3.363,341.547,23.159,297.62,24.448,231.917,26.376,174.7.141,122.829,0,35.276-.237,0,34.925,0,34.925v23.7H959Z" transform="translate(0 35.376)"/>
      </g>
    </g>
    <path id="Mask" class="cls-6" d="M554.076,120.749H387.663c-13.422,0-24.3-13.516-24.3-30.189s10.875-30.185,24.3-30.185h92.373c13.416,0,24.294-13.516,24.294-30.189S493.451,0,480.036,0H120.059c-13.419,0-24.3,13.516-24.3,30.185s10.878,30.189,24.3,30.189H224.036c13.419,0,24.3,13.516,24.3,30.185s-10.878,30.189-24.3,30.189H24.3c-13.419,0-24.3,13.516-24.3,30.189s10.878,30.185,24.3,30.185H139.95c13.419,0,24.294,13.516,24.294,30.189S153.369,241.5,139.95,241.5H84.755c-13.419,0-24.3,13.512-24.3,30.189s10.878,30.185,24.3,30.185H444.729c13.419,0,24.3-13.516,24.3-30.185s-10.878-30.189-24.3-30.189H303.576c-13.419,0-24.3-13.516-24.3-30.189s10.878-30.189,24.3-30.189h250.5c13.419,0,24.294-13.512,24.294-30.185S567.495,120.749,554.076,120.749Z" transform="matrix(0.809, -0.588, 0.588, 0.809, 43.252, 323.002)"/>
  </g>
</svg>
