<svg xmlns="http://www.w3.org/2000/svg" xmlns:xlink="http://www.w3.org/1999/xlink" viewBox="0 0 129.3 174.993">
  <defs>
    <style>
      .cls-1 {
        fill: url(#linear-gradient);
      }
    </style>
    <linearGradient id="linear-gradient" y1="0.5" x2="1" y2="0.5" gradientUnits="objectBoundingBox">
      <stop offset="0" stop-color="#2d8fff"/>
      <stop offset="1" stop-color="#9bcaff"/>
    </linearGradient>
  </defs>
  <g id="doctor" transform="translate(-1.016 -0.081)">
    <path id="Fill_1" data-name="Fill 1" class="cls-1" d="M83.18,174.993H77.111v-35.14a16.114,16.114,0,0,1-25.12-.253v35.392h-6.07v-42.33H35.181l-6.07.506c-6.927,1.441-23.04,7.8-23.04,35.6v6.22H0v-6.22c0-14.246,3.8-25.241,11.288-32.68a32.658,32.658,0,0,1,14.188-8.247,30.524,30.524,0,0,1,7.814-1.256H48.505V116.9a41.806,41.806,0,0,1-12.035-7.6,44.345,44.345,0,0,1-7.557-8.939,48.465,48.465,0,0,1-7.241-18.606v-.635a10.653,10.653,0,0,1-5.531-3.273c-4.295-4.756-4.046-12.266-3.74-15.274a7.869,7.869,0,0,1,2.993-5.555,11.63,11.63,0,0,1,6.227-2.13V37.651A36.665,36.665,0,0,1,24.13,23.574C26.839,16.754,32.969,8.21,46.786,6.232A118.655,118.655,0,0,1,64,5.039c2.469,0,4.622.056,6.521.105h.013c1.814.044,3.279.074,4.533.074,6.276,0,9.9-.645,13.513-4.314a3.035,3.035,0,0,1,4.989,3.234l0,.012a6.36,6.36,0,0,0-.279,2.39A3.329,3.329,0,0,0,95.56,9.426c8.122,3.584,12.07,9.968,12.07,19.516v25.95a11.278,11.278,0,0,1,6.206,2.128,7.873,7.873,0,0,1,2.993,5.555c.308,3.007.559,10.514-3.74,15.274a10.646,10.646,0,0,1-5.459,3.258v.109c0,.32-.014.873-.031.977a39.164,39.164,0,0,1-1.434,5.819,52.345,52.345,0,0,1-5.775,12.35,44.345,44.345,0,0,1-7.557,8.939A41.829,41.829,0,0,1,80.8,116.9v9.69H96a30.376,30.376,0,0,1,7.61,1.2,34.4,34.4,0,0,1,7.008,2.822,32.191,32.191,0,0,1,7.4,5.484c7.488,7.44,11.285,18.435,11.285,32.68v6.219h-6.07v-6.22c0-12.569-3.194-22.115-9.493-28.372a27.177,27.177,0,0,0-12.2-6.89l-6.07-.848H83.18v42.33Zm-28.6-56.081V129.6a10.075,10.075,0,1,0,20.149,0c0-.016,0-.031,0-.046V118.913a52.1,52.1,0,0,1-9.5,1.484c-.056,0-.126.006-.2.006H64.27c-.06,0-.12,0-.2-.006A52.113,52.113,0,0,1,54.575,118.913Zm-10.59-84.6h0c-4.3,10.645-12.022,14.243-16.243,15.439V81.509a45.06,45.06,0,0,0,6.4,15.753c6.8,10.443,16.972,16.186,30.231,17.069h.565c13.257-.884,23.428-6.627,30.231-17.069a45.113,45.113,0,0,0,6.4-15.753v-29.5c-7.293-.534-12.85-3.056-16.517-7.5A20.779,20.779,0,0,1,80.6,33.763a27.715,27.715,0,0,1-16.9,5.319,39.434,39.434,0,0,1-6.936-.644,53.122,53.122,0,0,1-12.782-4.126ZM21.672,60.986h0a5.281,5.281,0,0,0-2.552.83,1.789,1.789,0,0,0-.682,1.376c-.359,3.539.032,8.178,2.208,10.588a4.77,4.77,0,0,0,1.027.859V60.986Zm85.96.008v13.6a4.732,4.732,0,0,0,.955-.814c2.175-2.408,2.566-7.048,2.207-10.588a1.791,1.791,0,0,0-.681-1.376A4.972,4.972,0,0,0,107.632,60.994ZM83.693,23.5h0a2.986,2.986,0,0,1,1.263.276,3.029,3.029,0,0,1,1.717,3.335,20.066,20.066,0,0,0-.163,4.77,15.691,15.691,0,0,0,3.239,8.8c2.5,3,6.471,4.765,11.813,5.234V28.942c0-7.173-2.527-11.348-8.45-13.961a9.47,9.47,0,0,1-5.468-5.919C83.927,10.92,79.986,11.3,75.211,11.3c-1.585,0-3.159-.041-4.825-.084-1.772-.046-3.972-.1-6.344-.1a113.139,113.139,0,0,0-16.4,1.13c-8.784,1.257-14.8,5.824-17.877,13.573a30.335,30.335,0,0,0-2.084,11.593c0,.058.005.114.005.172v5.785c3.884-1.565,9.061-5.3,11.658-14.2a3.057,3.057,0,0,1,1.8-1.975,3.031,3.031,0,0,1,2.663.215A47.191,47.191,0,0,0,58,32.488a33.2,33.2,0,0,0,5.722.525,21.39,21.39,0,0,0,17.592-8.36A3.017,3.017,0,0,1,83.693,23.5Z" transform="translate(1.016 0.081)"/>
    <path id="Fill_4" data-name="Fill 4" class="cls-1" d="M7.2,3.6A3.6,3.6,0,1,1,3.6,0,3.6,3.6,0,0,1,7.2,3.6Z" transform="translate(40.14 52.491)"/>
    <path id="Fill_5" data-name="Fill 5" class="cls-1" d="M7.2,3.6A3.6,3.6,0,1,1,3.6,0,3.6,3.6,0,0,1,7.2,3.6Z" transform="translate(83.368 52.491)"/>
    <path id="Fill_6" data-name="Fill 6" class="cls-1" d="M38.436,4.984a3.071,3.071,0,0,0-.458-4.3,3.034,3.034,0,0,0-4.283.46C33.663,1.18,30,5.2,20.3,5.2,10.232,5.2,5.321.995,5.081.784A3.034,3.034,0,0,0,.8,1a3.072,3.072,0,0,0,.2,4.326c.266.245,6.686,6,19.311,6C32.987,11.322,37.916,5.634,38.436,4.984Z" transform="translate(46.316 89.544)"/>
    <path id="Fill_7" data-name="Fill 7" class="cls-1" d="M7.435,10.292h1.6a7.359,7.359,0,0,0,7.435-7.266,3.1,3.1,0,0,0-6.2,0A1.226,1.226,0,0,1,9.033,4.239h-1.6A1.227,1.227,0,0,1,6.2,3.027,3.064,3.064,0,0,0,3.1,0,3.063,3.063,0,0,0,0,3.027,7.359,7.359,0,0,0,7.435,10.292Z" transform="translate(57.637 67.93)"/>
  </g>
</svg>
