<svg id="pills" xmlns="http://www.w3.org/2000/svg" xmlns:xlink="http://www.w3.org/1999/xlink" viewBox="0 0 122.898 176">
  <defs>
    <style>
      .cls-1 {
        fill: url(#linear-gradient);
      }
    </style>
    <linearGradient id="linear-gradient" y1="0.5" x2="1" y2="0.5" gradientUnits="objectBoundingBox">
      <stop offset="0" stop-color="#2d8fff"/>
      <stop offset="1" stop-color="#9bcaff"/>
    </linearGradient>
  </defs>
  <path id="Fill_1" data-name="Fill 1" class="cls-1" d="M104.561,176H18.337A18.357,18.357,0,0,1,0,157.664V53.692A18.357,18.357,0,0,1,18.337,35.356h4.082V28.5h-9.8a3.441,3.441,0,0,1-3.437-3.437V3.437A3.441,3.441,0,0,1,12.618,0H110.28a3.441,3.441,0,0,1,3.437,3.437V25.062A3.441,3.441,0,0,1,110.28,28.5h-9.8v6.857h4.082A18.357,18.357,0,0,1,122.9,53.692V157.664A18.357,18.357,0,0,1,104.561,176ZM18.337,42.231A11.474,11.474,0,0,0,6.875,53.692V157.664a11.474,11.474,0,0,0,11.462,11.462h86.224a11.474,11.474,0,0,0,11.462-11.462V53.692a11.474,11.474,0,0,0-11.462-11.462ZM29.294,28.5v6.856H93.6V28.5ZM91.7,6.875V21.624h15.142V6.875Zm-26.813,0V21.624H84.823V6.875Zm-26.813,0V21.624H58.01V6.875Zm-22.019,0V21.624H31.2V6.875Z"/>
  <path id="Fill_4" data-name="Fill 4" class="cls-1" d="M73.786,77.223H3.437A3.441,3.441,0,0,1,0,73.785V3.437A3.441,3.441,0,0,1,3.437,0H73.786a3.441,3.441,0,0,1,3.437,3.437V73.785A3.441,3.441,0,0,1,73.786,77.223ZM6.875,6.875V70.348H70.348V6.875Z" transform="translate(22.837 67.192)"/>
  <path id="Fill_5" data-name="Fill 5" class="cls-1" d="M17.665,54.753a17.665,17.665,0,0,1-12.5-30.162L24.593,5.168A17.673,17.673,0,0,1,49.586,30.162L30.163,49.585A17.557,17.557,0,0,1,17.665,54.753Zm-.354-32.582h0L10.03,29.453A10.8,10.8,0,0,0,25.3,44.724l7.281-7.281L17.312,22.171ZM37.09,6.872a10.728,10.728,0,0,0-7.636,3.157l-7.282,7.282,15.27,15.27L44.726,25.3A10.793,10.793,0,0,0,37.09,6.872Z" transform="translate(34.071 78.427)"/>
  <path id="Fill_6" data-name="Fill 6" class="cls-1" d="M.264,4.75a3.682,3.682,0,0,0,.316.595,3.336,3.336,0,0,0,.949.949,3.694,3.694,0,0,0,.594.316,3.506,3.506,0,0,0,.643.2,3.42,3.42,0,0,0,.674.068A3.448,3.448,0,0,0,6.3,5.345a3.711,3.711,0,0,0,.316-.595,3.462,3.462,0,0,0,.2-.643,3.386,3.386,0,0,0,.069-.67,3.423,3.423,0,0,0-.069-.674,3.47,3.47,0,0,0-.2-.643A3.682,3.682,0,0,0,6.3,1.526,3.433,3.433,0,0,0,2.124.261,3.638,3.638,0,0,0,1.53.577,3.673,3.673,0,0,0,1.007,1a3.451,3.451,0,0,0-.426.522,3.682,3.682,0,0,0-.316.595,3.478,3.478,0,0,0-.2.643A3.423,3.423,0,0,0,0,3.437a3.384,3.384,0,0,0,.069.67,3.461,3.461,0,0,0,.2.643" transform="translate(92.888 51.628)"/>
  <path id="Fill_7" data-name="Fill 7" class="cls-1" d="M3.438,6.875H58.9A3.438,3.438,0,0,0,58.9,0H3.438a3.438,3.438,0,0,0,0,6.875" transform="translate(23.133 51.626)"/>
  <path id="Fill_8" data-name="Fill 8" class="cls-1" d="M6.613,2.123A3.463,3.463,0,0,0,6.3,1.531a3.31,3.31,0,0,0-.43-.523,3.426,3.426,0,0,0-.519-.43A3.656,3.656,0,0,0,4.753.263a3.476,3.476,0,0,0-.642-.2,3.4,3.4,0,0,0-1.344,0,3.463,3.463,0,0,0-.643.2,3.641,3.641,0,0,0-.595.316,3.453,3.453,0,0,0-.522.43,3.29,3.29,0,0,0-.426.523,3.488,3.488,0,0,0-.316.591,3.638,3.638,0,0,0-.2.643A3.447,3.447,0,0,0,0,3.439a3.383,3.383,0,0,0,.068.67,3.463,3.463,0,0,0,.2.643,3.519,3.519,0,0,0,.316.595,3.29,3.29,0,0,0,.426.523,3.435,3.435,0,0,0,.522.426,3.7,3.7,0,0,0,.595.316,3.49,3.49,0,0,0,.643.2,3.335,3.335,0,0,0,1.344,0,3.486,3.486,0,0,0,.642-.2A3.654,3.654,0,0,0,5.348,6.3a3.424,3.424,0,0,0,.519-.426,3.31,3.31,0,0,0,.43-.523,3.532,3.532,0,0,0,.316-.595,3.43,3.43,0,0,0,.2-.643,3.386,3.386,0,0,0,.069-.67,3.45,3.45,0,0,0-.069-.674,3.656,3.656,0,0,0-.2-.643" transform="translate(23.132 153.104)"/>
  <path id="Fill_9" data-name="Fill 9" class="cls-1" d="M58.9,0H3.438a3.438,3.438,0,0,0,0,6.875H58.9A3.438,3.438,0,0,0,58.9,0" transform="translate(37.426 153.105)"/>
</svg>
