<svg xmlns="http://www.w3.org/2000/svg" xmlns:xlink="http://www.w3.org/1999/xlink" viewBox="0 0 167.079 176">
  <defs>
    <style>
      .cls-1 {
        fill: url(#linear-gradient);
      }
    </style>
    <linearGradient id="linear-gradient" y1="0.5" x2="1" y2="0.5" gradientUnits="objectBoundingBox">
      <stop offset="0" stop-color="#2d8fff"/>
      <stop offset="1" stop-color="#9bcaff"/>
    </linearGradient>
  </defs>
  <g id="Schedule" transform="translate(-0.002)">
    <path id="Fill_1" data-name="Fill 1" class="cls-1" d="M77.241,60.221h-.02l-32.134-.239A11.046,11.046,0,0,1,37.272,56.7a10.933,10.933,0,0,1-3.181-7.4L15.426,30.748a6.338,6.338,0,0,0-4.436-1.822A5.765,5.765,0,0,0,7.1,30.381,5.89,5.89,0,0,0,5.19,34.6,5.786,5.786,0,0,0,6.9,38.886L19.751,51.681a2.584,2.584,0,0,1,0,3.635,2.624,2.624,0,0,1-3.659,0L3.236,42.522A10.973,10.973,0,0,1,8.642,24.008l-5.236-5.2A11.032,11.032,0,0,1,1.2,15.68,11.063,11.063,0,0,1,3.407,3.227a11.149,11.149,0,0,1,15.678,0l5.393,5.359A11.11,11.11,0,0,1,43.124,3.227l8.393,8.339A11.121,11.121,0,0,1,70.169,6.212l19.27,19.148a36.89,36.89,0,0,1,37.748-6.218,36.287,36.287,0,0,1,12.1,7.972l27.044,26.871a2.579,2.579,0,0,1-3.659,3.636L135.624,30.748a31.589,31.589,0,0,0-44.42,0L79.184,42.691a2.577,2.577,0,0,1-1.828.752,2.62,2.62,0,0,1-.771-.116l-31.37-.235h-.095a5.957,5.957,0,0,0-5.861,5.831,5.8,5.8,0,0,0,1.717,4.15,5.882,5.882,0,0,0,4.151,1.767l32.135.24a2.576,2.576,0,0,1,1.824.766,2.545,2.545,0,0,1,.744,1.823A2.586,2.586,0,0,1,77.241,60.221Zm-66-55.075a5.887,5.887,0,0,0-4.18,1.717,5.9,5.9,0,0,0,0,8.307L35.555,43.476a11.106,11.106,0,0,1,9.613-5.526h.085l1.472.011-31.3-31.1A5.891,5.891,0,0,0,11.246,5.145Zm24.04.019a5.879,5.879,0,0,0-4.18,1.7,5.851,5.851,0,0,0,0,8.307c.227.226,22.7,22.618,22.818,22.846l17.021.127L39.465,6.863A5.882,5.882,0,0,0,35.285,5.164ZM62.33,8.13A5.892,5.892,0,0,0,58.15,9.848a5.9,5.9,0,0,0,0,8.307l19.2,19.081,8.361-8.305L66.51,9.848A5.888,5.888,0,0,0,62.33,8.13Z" transform="translate(0 90.768)"/>
    <path id="Fill_3" data-name="Fill 3" class="cls-1" d="M100.576,6.724a2.6,2.6,0,0,0-2.337-.7l-29.8,5.921H15.679L4.417.753a2.6,2.6,0,0,0-3.659,0,2.559,2.559,0,0,0,0,3.635l12.02,11.943a2.6,2.6,0,0,0,1.83.753H68.7a2.607,2.607,0,0,0,.507-.05l28.692-5.7,14.046,13.956a2.625,2.625,0,0,0,3.8-.147,2.583,2.583,0,0,0-.137-3.488L100.576,6.724" transform="translate(23.683 149.97)"/>
    <path id="Fill_5" data-name="Fill 5" class="cls-1" d="M38.423,76.845A38.422,38.422,0,1,1,76.845,38.423,38.466,38.466,0,0,1,38.423,76.845Zm0-71.676A33.254,33.254,0,1,0,71.676,38.423,33.292,33.292,0,0,0,38.423,5.169Z" transform="translate(42.141)"/>
    <path id="Fill_6" data-name="Fill 6" class="cls-1" d="M11.746,17.647a2.7,2.7,0,0,0,3.5.526l8.379-5.411a2.487,2.487,0,0,0,.726-3.517,2.671,2.671,0,0,0-3.631-.7l-6.381,4.121L4.663.952a2.676,2.676,0,0,0-3.68-.4A2.482,2.482,0,0,0,.574,4.121L11.746,17.647" transform="translate(66.93 22.31)"/>
    <path id="Fill_7" data-name="Fill 7" class="cls-1" d="M27.267,54.535A27.307,27.307,0,0,1,.285,31.186C.173,30.138,0,27.983,0,27.267a27.268,27.268,0,0,1,54.535,0,24.626,24.626,0,0,1-.286,3.919,27.261,27.261,0,0,1-26.982,23.35Zm0-10.633a2.576,2.576,0,0,1,2.573,2.572v2.76a22.21,22.21,0,0,0,18.9-16.652H46.475a2.572,2.572,0,1,1,0-5.144h2.911c0-.025,0-.049,0-.074s0-.065,0-.1A22.11,22.11,0,0,0,29.84,5.3V8.06a2.573,2.573,0,0,1-5.145,0V5.3A22.112,22.112,0,0,0,5.145,27.267c0,.033,0,.065,0,.1s0,.049,0,.074H8.06a2.572,2.572,0,1,1,0,5.144H5.8A22.208,22.208,0,0,0,24.7,49.235v-2.76A2.575,2.575,0,0,1,27.267,43.9Z" transform="translate(53.296 11.155)"/>
  </g>
</svg>
